<?xml version="1.0" encoding="utf-8"?>
<!-- Generator: Adobe Illustrator 19.0.0, SVG Export Plug-In . SVG Version: 6.00 Build 0)  -->
<svg version="1.1" xmlns="http://www.w3.org/2000/svg" xmlns:xlink="http://www.w3.org/1999/xlink" x="0px" y="0px"
	 viewBox="0 0 256 256" style="enable-background:new 0 0 256 256;" xml:space="preserve">
<style type="text/css">
	.st0{display:none;}
	.st1{display:inline;opacity:0.4;fill:url(#XMLID_22_);stroke:url(#XMLID_23_);stroke-miterlimit:10;}
	.st2{display:inline;}
	.st3{fill:none;stroke:url(#XMLID_32_);stroke-miterlimit:10;}
	.st4{opacity:0.4;fill:url(#XMLID_34_);}
	.st5{opacity:0.3;}
	.st6{fill:url(#XMLID_54_);}
	.st7{fill:url(#XMLID_55_);}
	.st8{fill:url(#XMLID_56_);}
	.st9{display:inline;opacity:5.000000e-002;}
	.st10{fill:none;}
	.st11{opacity:0.15;fill:url(#XMLID_57_);}
	.st12{opacity:0.5;fill:url(#XMLID_58_);}
	.st13{fill:url(#XMLID_59_);}
	.st14{opacity:3.000000e-002;fill:none;stroke:#FFFFFF;stroke-width:2;stroke-miterlimit:10;}
	.st15{opacity:0.15;fill:url(#XMLID_60_);}
	.st16{opacity:0.5;fill:url(#XMLID_61_);}
	.st17{fill:url(#XMLID_65_);}
	.st18{opacity:0.15;fill:url(#XMLID_66_);}
	.st19{opacity:0.5;fill:url(#XMLID_67_);}
	.st20{fill:url(#XMLID_68_);}
	.st21{opacity:0.8;}
	.st22{opacity:0.9;}
	.st23{fill:#251443;}
	.st24{fill:#AD1F23;}
	.st25{fill:#1C5C2E;}
</style>
<g id="background" class="st0">
	
		<radialGradient id="XMLID_22_" cx="128" cy="128" r="353.8729" gradientTransform="matrix(1 0 0 1.5 0 -64)" gradientUnits="userSpaceOnUse">
		<stop  offset="0.5744" style="stop-color:#000000;stop-opacity:0"/>
		<stop  offset="0.7977" style="stop-color:#000000;stop-opacity:0.6512"/>
		<stop  offset="1" style="stop-color:#000000;stop-opacity:0.95"/>
	</radialGradient>
	<radialGradient id="XMLID_23_" cx="128" cy="128" r="354.3688" gradientUnits="userSpaceOnUse">
		<stop  offset="0.5744" style="stop-color:#000000;stop-opacity:0"/>
		<stop  offset="0.7977" style="stop-color:#000000;stop-opacity:0.6512"/>
		<stop  offset="1" style="stop-color:#000000;stop-opacity:0.95"/>
	</radialGradient>
	<rect id="XMLID_42_" x="-178" y="-268" class="st1" width="612" height="792"/>
	<g id="XMLID_33_" class="st2">
		<g id="XMLID_76_">
			<radialGradient id="XMLID_32_" cx="1167.5385" cy="-17.4023" r="0" gradientUnits="userSpaceOnUse">
				<stop  offset="0" style="stop-color:#000000;stop-opacity:0"/>
				<stop  offset="0.5468" style="stop-color:#000000;stop-opacity:0.95"/>
				<stop  offset="1" style="stop-color:#FFFFFF;stop-opacity:0.95"/>
			</radialGradient>
			<path id="XMLID_80_" class="st3" d="M1167.5-17.4"/>
		</g>
	</g>
</g>
<g id="Layer_5">
	
		<radialGradient id="XMLID_34_" cx="128" cy="128" r="114.0816" gradientTransform="matrix(1.3009 0 0 1.3 -38.521 -38.4)" gradientUnits="userSpaceOnUse">
		<stop  offset="0.5744" style="stop-color:#000000"/>
		<stop  offset="0.629" style="stop-color:#222020;stop-opacity:0.9147"/>
		<stop  offset="0.7338" style="stop-color:#474545;stop-opacity:0.7512"/>
		<stop  offset="0.7977" style="stop-color:#5A5757;stop-opacity:0.6512"/>
		<stop  offset="0.8046" style="stop-color:#615E5E;stop-opacity:0.6614"/>
		<stop  offset="0.8399" style="stop-color:#807C7B;stop-opacity:0.7135"/>
		<stop  offset="0.8749" style="stop-color:#9B9594;stop-opacity:0.7652"/>
		<stop  offset="0.9089" style="stop-color:#AFA9A7;stop-opacity:0.8154"/>
		<stop  offset="0.9417" style="stop-color:#BEB6B3;stop-opacity:0.8638"/>
		<stop  offset="0.9726" style="stop-color:#C7BEBB;stop-opacity:0.9096"/>
		<stop  offset="1" style="stop-color:#CCC2C0;stop-opacity:0.95"/>
	</radialGradient>
	<rect id="XMLID_124_" x="-0.3" y="0.3" class="st4" width="256.7" height="255.3"/>
</g>
<g id="circles">
	<g id="XMLID_763_" class="st5">
		
			<linearGradient id="XMLID_54_" gradientUnits="userSpaceOnUse" x1="10.4389" y1="-34.6775" x2="53.328" y2="-34.6775" gradientTransform="matrix(0.7071 -0.7071 0.7071 0.7071 165.4425 79.617)">
			<stop  offset="0" style="stop-color:#680B0F"/>
			<stop  offset="2.688738e-002" style="stop-color:#691328"/>
			<stop  offset="5.385680e-002" style="stop-color:#69183B"/>
			<stop  offset="8.147094e-002" style="stop-color:#671C4B"/>
			<stop  offset="0.1094" style="stop-color:#651F58"/>
			<stop  offset="0.1378" style="stop-color:#632161"/>
			<stop  offset="0.167" style="stop-color:#622267"/>
			<stop  offset="0.198" style="stop-color:#612369"/>
			<stop  offset="0.6" style="stop-color:#3B0E2D"/>
			<stop  offset="0.8227" style="stop-color:#250029"/>
		</linearGradient>
		<circle id="XMLID_189_" class="st6" cx="163.5" cy="32.6" r="21.4"/>
	</g>
	<g id="XMLID_760_" class="st5">
		
			<linearGradient id="XMLID_55_" gradientUnits="userSpaceOnUse" x1="-311.0302" y1="21.9683" x2="-229.7111" y2="21.9683" gradientTransform="matrix(-0.7071 0.7071 -0.7071 -0.7071 -99.7315 414.6899)">
			<stop  offset="0" style="stop-color:#A91E22"/>
			<stop  offset="0" style="stop-color:#AB3224"/>
			<stop  offset="0" style="stop-color:#B05927"/>
			<stop  offset="0" style="stop-color:#B4742B"/>
			<stop  offset="0" style="stop-color:#B78A2D"/>
			<stop  offset="0" style="stop-color:#B99D2F"/>
			<stop  offset="0" style="stop-color:#BBAA30"/>
			<stop  offset="0" style="stop-color:#BDB331"/>
			<stop  offset="0" style="stop-color:#BEB631"/>
			<stop  offset="0" style="stop-color:#93341F"/>
			<stop  offset="0.3756" style="stop-color:#476B32"/>
			<stop  offset="1" style="stop-color:#365628"/>
		</linearGradient>
		<circle id="XMLID_187_" class="st7" cx="75.9" cy="208" r="40.7"/>
	</g>
	<g id="XMLID_757_" class="st5">
		
			<linearGradient id="XMLID_56_" gradientUnits="userSpaceOnUse" x1="167.4947" y1="306.7122" x2="317.373" y2="306.7122" gradientTransform="matrix(-0.7071 0.7071 -0.7071 -0.7071 520.6732 165.723)">
			<stop  offset="0" style="stop-color:#7E1416"/>
			<stop  offset="4.791877e-002" style="stop-color:#821D18"/>
			<stop  offset="0.1925" style="stop-color:#8B2F1C"/>
			<stop  offset="0.3413" style="stop-color:#91391F"/>
			<stop  offset="0.5" style="stop-color:#933D1F"/>
			<stop  offset="1" style="stop-color:#A97D2C"/>
		</linearGradient>
		<circle id="XMLID_185_" class="st8" cx="132.4" cy="120.3" r="74.9"/>
	</g>
</g>
<g id="flares" class="st0">
	<g id="XMLID_43_" class="st9">
		<line id="XMLID_21_" class="st10" x1="-27" y1="366" x2="23.8" y2="313.7"/>
		<circle id="XMLID_35_" class="st10" cx="-27" cy="366" r="60.8"/>
		<circle id="XMLID_36_" class="st10" cx="-27" cy="366" r="72.9"/>
		<polyline id="XMLID_37_" class="st10" points="-27,366 26.8,343.4 -27,366 -80.8,388.6 -27,366 -4.4,419.8 -27,366 -49.6,312.2 
			-27,366 104.6,433.5 -27,366 -158.6,298.5 -27,366 -94.5,497.6 -27,366 40.5,234.4 -27,366 17.6,377 -27,366 -71.6,355 -27,366 
			-38,410.6 -27,366 -16,321.4 -27,366 279.9,408.6 -27,366 -333.9,323.4 -27,366 -69.6,672.9 -27,366 15.6,59.1 -27,366 
			157.4,325.6 -27,366 -211.4,406.4 -27,366 13.4,550.4 -27,366 -67.4,181.6 -27,366 241.9,436.8 -27,366 -295.9,295.2 -27,366 
			-97.8,634.9 -27,366 43.8,97.1 -27,366 230.3,391.5 -27,366 -284.3,340.5 -27,366 -52.5,623.3 -27,366 -1.5,108.7 -27,366 
			307.8,418.7 -27,366 -361.8,313.3 -27,366 -79.7,700.8 -27,366 25.7,31.2 -27,366 115.9,505.5 -27,366 -169.9,226.5 -27,366 
			-166.5,508.9 -27,366 112.5,223.1 -27,366 306.5,269 -27,366 -360.5,463 -27,366 70,699.5 -27,366 -124,32.5 -27,366 201.5,459.5 
			-27,366 -255.5,272.5 -27,366 -120.5,594.5 -27,366 66.5,137.5 -27,366 116.2,359.8 -27,366 -170.2,372.2 -27,366 -20.8,509.2 
			-27,366 -33.2,222.8 -27,366 14.7,362.3 -27,366 -68.7,369.7 -27,366 -23.3,407.7 -27,366 -30.7,324.3 -27,366 298.1,298.1 
			-27,366 -352.1,433.9 -27,366 40.9,691.1 -27,366 -94.9,40.9 -27,366 252.2,208.7 -27,366 -306.2,523.3 -27,366 130.3,645.2 
			-27,366 -184.3,86.8 		"/>
		<radialGradient id="XMLID_57_" cx="-27" cy="366" r="145.8789" gradientUnits="userSpaceOnUse">
			<stop  offset="0" style="stop-color:#000000"/>
			<stop  offset="0.73" style="stop-color:#93432A"/>
			<stop  offset="1" style="stop-color:#000000"/>
		</radialGradient>
		<circle id="XMLID_38_" class="st11" cx="-27" cy="366" r="145.9"/>
		<radialGradient id="XMLID_58_" cx="-27" cy="366" r="72.9395" gradientUnits="userSpaceOnUse">
			<stop  offset="0.15" style="stop-color:#FFFFFF"/>
			<stop  offset="0.2134" style="stop-color:#D7C0BE"/>
			<stop  offset="0.2931" style="stop-color:#B68A8A"/>
			<stop  offset="0.362" style="stop-color:#A16A6B"/>
			<stop  offset="0.4166" style="stop-color:#95585B"/>
			<stop  offset="0.45" style="stop-color:#915155"/>
			<stop  offset="0.5442" style="stop-color:#78312F"/>
			<stop  offset="0.6472" style="stop-color:#5C0E05"/>
			<stop  offset="0.7362" style="stop-color:#410000"/>
			<stop  offset="0.8068" style="stop-color:#200000"/>
			<stop  offset="0.85" style="stop-color:#000000"/>
			<stop  offset="0.856" style="stop-color:#120000"/>
			<stop  offset="0.8623" style="stop-color:#300000"/>
			<stop  offset="0.8686" style="stop-color:#470000"/>
			<stop  offset="0.875" style="stop-color:#5C0000"/>
			<stop  offset="0.8815" style="stop-color:#751400"/>
			<stop  offset="0.888" style="stop-color:#912A15"/>
			<stop  offset="0.8945" style="stop-color:#B44126"/>
			<stop  offset="0.9" style="stop-color:#D65836"/>
			<stop  offset="0.9063" style="stop-color:#BD472B"/>
			<stop  offset="0.916" style="stop-color:#9D311B"/>
			<stop  offset="0.9262" style="stop-color:#801D09"/>
			<stop  offset="0.9367" style="stop-color:#690900"/>
			<stop  offset="0.9475" style="stop-color:#530000"/>
			<stop  offset="0.9588" style="stop-color:#410000"/>
			<stop  offset="0.9707" style="stop-color:#290000"/>
			<stop  offset="0.9838" style="stop-color:#0F0000"/>
			<stop  offset="1" style="stop-color:#000000"/>
		</radialGradient>
		<circle id="XMLID_39_" class="st12" cx="-27" cy="366" r="72.9"/>
		<radialGradient id="XMLID_59_" cx="-27" cy="366" r="60.7829" gradientUnits="userSpaceOnUse">
			<stop  offset="0.15" style="stop-color:#FFFFFF"/>
			<stop  offset="0.2824" style="stop-color:#9C9593"/>
			<stop  offset="0.4253" style="stop-color:#5A5250"/>
			<stop  offset="0.5636" style="stop-color:#302A28"/>
			<stop  offset="0.6936" style="stop-color:#0F0704"/>
			<stop  offset="0.8134" style="stop-color:#000000"/>
			<stop  offset="0.9192" style="stop-color:#000000"/>
			<stop  offset="1" style="stop-color:#000000"/>
		</radialGradient>
		<circle id="XMLID_40_" class="st13" cx="-27" cy="366" r="60.8"/>
		<polyline id="XMLID_41_" class="st14" points="-27,366 26.8,343.4 -27,366 -80.8,388.6 -27,366 -4.4,419.8 -27,366 -49.6,312.2 
			-27,366 104.6,433.5 -27,366 -158.6,298.5 -27,366 -94.5,497.6 -27,366 40.5,234.4 -27,366 17.6,377 -27,366 -71.6,355 -27,366 
			-38,410.6 -27,366 -16,321.4 -27,366 279.9,408.6 -27,366 -333.9,323.4 -27,366 -69.6,672.9 -27,366 15.6,59.1 -27,366 
			157.4,325.6 -27,366 -211.4,406.4 -27,366 13.4,550.4 -27,366 -67.4,181.6 -27,366 241.9,436.8 -27,366 -295.9,295.2 -27,366 
			-97.8,634.9 -27,366 43.8,97.1 -27,366 230.3,391.5 -27,366 -284.3,340.5 -27,366 -52.5,623.3 -27,366 -1.5,108.7 -27,366 
			307.8,418.7 -27,366 -361.8,313.3 -27,366 -79.7,700.8 -27,366 25.7,31.2 -27,366 115.9,505.5 -27,366 -169.9,226.5 -27,366 
			-166.5,508.9 -27,366 112.5,223.1 -27,366 306.5,269 -27,366 -360.5,463 -27,366 70,699.5 -27,366 -124,32.5 -27,366 201.5,459.5 
			-27,366 -255.5,272.5 -27,366 -120.5,594.5 -27,366 66.5,137.5 -27,366 116.2,359.8 -27,366 -170.2,372.2 -27,366 -20.8,509.2 
			-27,366 -33.2,222.8 -27,366 14.7,362.3 -27,366 -68.7,369.7 -27,366 -23.3,407.7 -27,366 -30.7,324.3 -27,366 298.1,298.1 
			-27,366 -352.1,433.9 -27,366 40.9,691.1 -27,366 -94.9,40.9 -27,366 252.2,208.7 -27,366 -306.2,523.3 -27,366 130.3,645.2 
			-27,366 -184.3,86.8 		"/>
	</g>
	<g id="XMLID_160_" class="st9">
		<line id="XMLID_24_" class="st10" x1="233.5" y1="-156" x2="259.8" y2="-183.1"/>
		<circle id="XMLID_25_" class="st10" cx="233.5" cy="-156" r="31.4"/>
		<circle id="XMLID_26_" class="st10" cx="233.5" cy="-156" r="37.7"/>
		<polyline id="XMLID_27_" class="st10" points="233.5,-156 261.3,-167.7 233.5,-156 205.7,-144.4 233.5,-156 245.2,-128.2 
			233.5,-156 221.9,-183.8 233.5,-156 301.5,-121.2 233.5,-156 165.6,-190.9 233.5,-156 198.7,-88.1 233.5,-156 268.4,-224 
			233.5,-156 256.6,-150.4 233.5,-156 210.5,-161.7 233.5,-156 227.9,-133 233.5,-156 239.2,-179.1 233.5,-156 392,-134.1 
			233.5,-156 75.1,-178 233.5,-156 211.6,2.4 233.5,-156 255.5,-314.5 233.5,-156 328.8,-176.9 233.5,-156 138.3,-135.2 233.5,-156 
			254.4,-60.8 233.5,-156 212.7,-251.3 233.5,-156 372.4,-119.5 233.5,-156 94.7,-192.6 233.5,-156 197,-17.2 233.5,-156 
			270.1,-294.9 233.5,-156 366.4,-142.9 233.5,-156 100.7,-169.2 233.5,-156 220.4,-23.2 233.5,-156 246.7,-288.9 233.5,-156 
			406.4,-128.8 233.5,-156 60.7,-183.3 233.5,-156 206.3,16.8 233.5,-156 260.8,-328.9 233.5,-156 307.4,-84 233.5,-156 
			159.7,-228.1 233.5,-156 161.5,-82.2 233.5,-156 305.6,-229.9 233.5,-156 405.7,-206.1 233.5,-156 61.4,-106 233.5,-156 
			283.6,16.1 233.5,-156 183.5,-328.2 233.5,-156 351.5,-107.8 233.5,-156 115.6,-204.3 233.5,-156 185.3,-38.1 233.5,-156 
			281.8,-274 233.5,-156 307.5,-159.2 233.5,-156 159.6,-152.9 233.5,-156 236.7,-82.1 233.5,-156 230.4,-230 233.5,-156 
			255.1,-158 233.5,-156 212,-154.1 233.5,-156 235.5,-134.5 233.5,-156 231.6,-177.6 233.5,-156 401.4,-191.1 233.5,-156 
			65.7,-121 233.5,-156 268.6,11.8 233.5,-156 198.5,-323.9 233.5,-156 377.7,-237.3 233.5,-156 89.4,-74.8 233.5,-156 314.8,-11.9 
			233.5,-156 152.3,-300.2 		"/>
		<radialGradient id="XMLID_60_" cx="233.5467" cy="-156.049" r="75.3196" gradientUnits="userSpaceOnUse">
			<stop  offset="0" style="stop-color:#000000"/>
			<stop  offset="0.73" style="stop-color:#93432A"/>
			<stop  offset="1" style="stop-color:#000000"/>
		</radialGradient>
		<circle id="XMLID_28_" class="st15" cx="233.5" cy="-156" r="75.3"/>
		<radialGradient id="XMLID_61_" cx="233.5467" cy="-156.049" r="37.6598" gradientUnits="userSpaceOnUse">
			<stop  offset="0.15" style="stop-color:#FFFFFF"/>
			<stop  offset="0.2134" style="stop-color:#D7C0BE"/>
			<stop  offset="0.2931" style="stop-color:#B68A8A"/>
			<stop  offset="0.362" style="stop-color:#A16A6B"/>
			<stop  offset="0.4166" style="stop-color:#95585B"/>
			<stop  offset="0.45" style="stop-color:#915155"/>
			<stop  offset="0.5442" style="stop-color:#78312F"/>
			<stop  offset="0.6472" style="stop-color:#5C0E05"/>
			<stop  offset="0.7362" style="stop-color:#410000"/>
			<stop  offset="0.8068" style="stop-color:#200000"/>
			<stop  offset="0.85" style="stop-color:#000000"/>
			<stop  offset="0.856" style="stop-color:#120000"/>
			<stop  offset="0.8623" style="stop-color:#300000"/>
			<stop  offset="0.8686" style="stop-color:#470000"/>
			<stop  offset="0.875" style="stop-color:#5C0000"/>
			<stop  offset="0.8815" style="stop-color:#751400"/>
			<stop  offset="0.888" style="stop-color:#912A15"/>
			<stop  offset="0.8945" style="stop-color:#B44126"/>
			<stop  offset="0.9" style="stop-color:#D65836"/>
			<stop  offset="0.9063" style="stop-color:#BD472B"/>
			<stop  offset="0.916" style="stop-color:#9D311B"/>
			<stop  offset="0.9262" style="stop-color:#801D09"/>
			<stop  offset="0.9367" style="stop-color:#690900"/>
			<stop  offset="0.9475" style="stop-color:#530000"/>
			<stop  offset="0.9588" style="stop-color:#410000"/>
			<stop  offset="0.9707" style="stop-color:#290000"/>
			<stop  offset="0.9838" style="stop-color:#0F0000"/>
			<stop  offset="1" style="stop-color:#000000"/>
		</radialGradient>
		<circle id="XMLID_29_" class="st16" cx="233.5" cy="-156" r="37.7"/>
		<radialGradient id="XMLID_65_" cx="233.5467" cy="-156.049" r="31.3832" gradientUnits="userSpaceOnUse">
			<stop  offset="0.15" style="stop-color:#FFFFFF"/>
			<stop  offset="0.2824" style="stop-color:#9C9593"/>
			<stop  offset="0.4253" style="stop-color:#5A5250"/>
			<stop  offset="0.5636" style="stop-color:#302A28"/>
			<stop  offset="0.6936" style="stop-color:#0F0704"/>
			<stop  offset="0.8134" style="stop-color:#000000"/>
			<stop  offset="0.9192" style="stop-color:#000000"/>
			<stop  offset="1" style="stop-color:#000000"/>
		</radialGradient>
		<circle id="XMLID_30_" class="st17" cx="233.5" cy="-156" r="31.4"/>
		<polyline id="XMLID_31_" class="st14" points="233.5,-156 261.3,-167.7 233.5,-156 205.7,-144.4 233.5,-156 245.2,-128.2 
			233.5,-156 221.9,-183.8 233.5,-156 301.5,-121.2 233.5,-156 165.6,-190.9 233.5,-156 198.7,-88.1 233.5,-156 268.4,-224 
			233.5,-156 256.6,-150.4 233.5,-156 210.5,-161.7 233.5,-156 227.9,-133 233.5,-156 239.2,-179.1 233.5,-156 392,-134.1 
			233.5,-156 75.1,-178 233.5,-156 211.6,2.4 233.5,-156 255.5,-314.5 233.5,-156 328.8,-176.9 233.5,-156 138.3,-135.2 233.5,-156 
			254.4,-60.8 233.5,-156 212.7,-251.3 233.5,-156 372.4,-119.5 233.5,-156 94.7,-192.6 233.5,-156 197,-17.2 233.5,-156 
			270.1,-294.9 233.5,-156 366.4,-142.9 233.5,-156 100.7,-169.2 233.5,-156 220.4,-23.2 233.5,-156 246.7,-288.9 233.5,-156 
			406.4,-128.8 233.5,-156 60.7,-183.3 233.5,-156 206.3,16.8 233.5,-156 260.8,-328.9 233.5,-156 307.4,-84 233.5,-156 
			159.7,-228.1 233.5,-156 161.5,-82.2 233.5,-156 305.6,-229.9 233.5,-156 405.7,-206.1 233.5,-156 61.4,-106 233.5,-156 
			283.6,16.1 233.5,-156 183.5,-328.2 233.5,-156 351.5,-107.8 233.5,-156 115.6,-204.3 233.5,-156 185.3,-38.1 233.5,-156 
			281.8,-274 233.5,-156 307.5,-159.2 233.5,-156 159.6,-152.9 233.5,-156 236.7,-82.1 233.5,-156 230.4,-230 233.5,-156 
			255.1,-158 233.5,-156 212,-154.1 233.5,-156 235.5,-134.5 233.5,-156 231.6,-177.6 233.5,-156 401.4,-191.1 233.5,-156 
			65.7,-121 233.5,-156 268.6,11.8 233.5,-156 198.5,-323.9 233.5,-156 377.7,-237.3 233.5,-156 89.4,-74.8 233.5,-156 314.8,-11.9 
			233.5,-156 152.3,-300.2 		"/>
	</g>
	<g id="XMLID_1_" class="st9">
		<line id="XMLID_2_" class="st10" x1="141" y1="105" x2="234.3" y2="9"/>
		<circle id="XMLID_3_" class="st10" cx="141" cy="105" r="111.5"/>
		<circle id="XMLID_4_" class="st10" cx="141" cy="105" r="133.9"/>
		<polyline id="XMLID_5_" class="st10" points="141,105 239.8,63.6 141,105 42.2,146.4 141,105 182.4,203.8 141,105 99.6,6.2 
			141,105 382.5,228.9 141,105 -100.5,-18.9 141,105 17.1,346.5 141,105 264.9,-136.5 141,105 222.8,125.2 141,105 59.2,84.8 
			141,105 120.8,186.8 141,105 161.2,23.2 141,105 704.1,183.2 141,105 -422.1,26.8 141,105 62.8,668.1 141,105 219.2,-458.1 
			141,105 479.4,30.8 141,105 -197.4,179.2 141,105 215.2,443.4 141,105 66.8,-233.4 141,105 634.5,235 141,105 -352.5,-25 141,105 
			11,598.5 141,105 271,-388.5 141,105 613.2,151.8 141,105 -331.2,58.2 141,105 94.2,577.2 141,105 187.8,-367.2 141,105 
			755.4,201.8 141,105 -473.4,8.2 141,105 44.2,719.4 141,105 237.8,-509.4 141,105 403.3,361 141,105 -121.3,-151 141,105 
			-115,367.3 141,105 397,-157.3 141,105 752.9,-72.9 141,105 -470.9,282.9 141,105 318.9,716.9 141,105 -36.9,-506.9 141,105 
			560.3,276.6 141,105 -278.3,-66.6 141,105 -30.6,524.3 141,105 312.6,-314.3 141,105 403.8,93.7 141,105 -121.8,116.3 141,105 
			152.3,367.8 141,105 129.7,-157.8 141,105 217.5,98.2 141,105 64.5,111.8 141,105 147.8,181.5 141,105 134.2,28.5 141,105 
			737.7,-19.5 141,105 -455.7,229.5 141,105 265.5,701.7 141,105 16.5,-491.7 141,105 653.5,-183.7 141,105 -371.5,393.7 141,105 
			429.7,617.5 141,105 -147.7,-407.5 		"/>
		<radialGradient id="XMLID_66_" cx="141" cy="105" r="267.7121" gradientUnits="userSpaceOnUse">
			<stop  offset="0" style="stop-color:#000000"/>
			<stop  offset="0.73" style="stop-color:#93432A"/>
			<stop  offset="1" style="stop-color:#000000"/>
		</radialGradient>
		<circle id="XMLID_8_" class="st18" cx="141" cy="105" r="267.7"/>
		<radialGradient id="XMLID_67_" cx="141" cy="105" r="133.856" gradientUnits="userSpaceOnUse">
			<stop  offset="0.15" style="stop-color:#FFFFFF"/>
			<stop  offset="0.2134" style="stop-color:#D7C0BE"/>
			<stop  offset="0.2931" style="stop-color:#B68A8A"/>
			<stop  offset="0.362" style="stop-color:#A16A6B"/>
			<stop  offset="0.4166" style="stop-color:#95585B"/>
			<stop  offset="0.45" style="stop-color:#915155"/>
			<stop  offset="0.5442" style="stop-color:#78312F"/>
			<stop  offset="0.6472" style="stop-color:#5C0E05"/>
			<stop  offset="0.7362" style="stop-color:#410000"/>
			<stop  offset="0.8068" style="stop-color:#200000"/>
			<stop  offset="0.85" style="stop-color:#000000"/>
			<stop  offset="0.856" style="stop-color:#120000"/>
			<stop  offset="0.8623" style="stop-color:#300000"/>
			<stop  offset="0.8686" style="stop-color:#470000"/>
			<stop  offset="0.875" style="stop-color:#5C0000"/>
			<stop  offset="0.8815" style="stop-color:#751400"/>
			<stop  offset="0.888" style="stop-color:#912A15"/>
			<stop  offset="0.8945" style="stop-color:#B44126"/>
			<stop  offset="0.9" style="stop-color:#D65836"/>
			<stop  offset="0.9063" style="stop-color:#BD472B"/>
			<stop  offset="0.916" style="stop-color:#9D311B"/>
			<stop  offset="0.9262" style="stop-color:#801D09"/>
			<stop  offset="0.9367" style="stop-color:#690900"/>
			<stop  offset="0.9475" style="stop-color:#530000"/>
			<stop  offset="0.9588" style="stop-color:#410000"/>
			<stop  offset="0.9707" style="stop-color:#290000"/>
			<stop  offset="0.9838" style="stop-color:#0F0000"/>
			<stop  offset="1" style="stop-color:#000000"/>
		</radialGradient>
		<circle id="XMLID_9_" class="st19" cx="141" cy="105" r="133.9"/>
		<radialGradient id="XMLID_68_" cx="141" cy="105" r="111.5467" gradientUnits="userSpaceOnUse">
			<stop  offset="0.15" style="stop-color:#FFFFFF"/>
			<stop  offset="0.2824" style="stop-color:#9C9593"/>
			<stop  offset="0.4253" style="stop-color:#5A5250"/>
			<stop  offset="0.5636" style="stop-color:#302A28"/>
			<stop  offset="0.6936" style="stop-color:#0F0704"/>
			<stop  offset="0.8134" style="stop-color:#000000"/>
			<stop  offset="0.9192" style="stop-color:#000000"/>
			<stop  offset="1" style="stop-color:#000000"/>
		</radialGradient>
		<circle id="XMLID_10_" class="st20" cx="141" cy="105" r="111.5"/>
		<polyline id="XMLID_11_" class="st14" points="141,105 239.8,63.6 141,105 42.2,146.4 141,105 182.4,203.8 141,105 99.6,6.2 
			141,105 382.5,228.9 141,105 -100.5,-18.9 141,105 17.1,346.5 141,105 264.9,-136.5 141,105 222.8,125.2 141,105 59.2,84.8 
			141,105 120.8,186.8 141,105 161.2,23.2 141,105 704.1,183.2 141,105 -422.1,26.8 141,105 62.8,668.1 141,105 219.2,-458.1 
			141,105 479.4,30.8 141,105 -197.4,179.2 141,105 215.2,443.4 141,105 66.8,-233.4 141,105 634.5,235 141,105 -352.5,-25 141,105 
			11,598.5 141,105 271,-388.5 141,105 613.2,151.8 141,105 -331.2,58.2 141,105 94.2,577.2 141,105 187.8,-367.2 141,105 
			755.4,201.8 141,105 -473.4,8.2 141,105 44.2,719.4 141,105 237.8,-509.4 141,105 403.3,361 141,105 -121.3,-151 141,105 
			-115,367.3 141,105 397,-157.3 141,105 752.9,-72.9 141,105 -470.9,282.9 141,105 318.9,716.9 141,105 -36.9,-506.9 141,105 
			560.3,276.6 141,105 -278.3,-66.6 141,105 -30.6,524.3 141,105 312.6,-314.3 141,105 403.8,93.7 141,105 -121.8,116.3 141,105 
			152.3,367.8 141,105 129.7,-157.8 141,105 217.5,98.2 141,105 64.5,111.8 141,105 147.8,181.5 141,105 134.2,28.5 141,105 
			737.7,-19.5 141,105 -455.7,229.5 141,105 265.5,701.7 141,105 16.5,-491.7 141,105 653.5,-183.7 141,105 -371.5,393.7 141,105 
			429.7,617.5 141,105 -147.7,-407.5 		"/>
	</g>
</g>
<g id="fiery_outlines" class="st21">
	<g id="XMLID_63_" class="st22">
		<g id="XMLID_386_">
			<g id="XMLID_390_">
				<g id="XMLID_391_">
					<g id="XMLID_392_">
						<path id="XMLID_479_" class="st23" d="M163.3,52.8c0.2,0,0.1-0.2,0.1-0.2C163.2,52.6,163.3,52.8,163.3,52.8z"/>
						<polygon id="XMLID_478_" class="st23" points="160.2,53 160.2,52.9 159.7,53 						"/>
						<path id="XMLID_477_" class="st23" d="M157.3,52.3c0.2,0.4,1.1,0.2,1.5,0.5l0.1,0.1l0.3-0.2C158.5,52.5,157.7,52.5,157.3,52.3
							z"/>
						<path id="XMLID_476_" class="st23" d="M156.1,51c0,0.2-0.4,0,0.3,0.2c0,0,0,0,0-0.1C156.3,51.1,156.2,51.1,156.1,51z"/>
						<path id="XMLID_475_" class="st23" d="M156.3,51.2C156.6,51.2,156.2,51,156.3,51.2L156.3,51.2z"/>
						<path id="XMLID_474_" class="st23" d="M155,50.7l0.4,0.1c0-0.1-0.3-0.3-0.2-0.3C154.9,50.4,154.9,50.5,155,50.7z"/>
						<path id="XMLID_473_" class="st23" d="M154.6,50.8l0.2,0C154.8,50.8,154.7,50.7,154.6,50.8z"/>
						<path id="XMLID_472_" class="st23" d="M155.2,50.9l-0.4-0.1c0,0.1,0,0.2,0.2,0.1C154.9,50.9,155,50.9,155.2,50.9z"/>
						<path id="XMLID_471_" class="st23" d="M155.4,51c0.2,0.2,0.4,0.3,0,0.3C156.2,51.6,156.2,51.3,155.4,51z"/>
						<path id="XMLID_470_" class="st23" d="M157,52.6c0,0,0.3,0.2,0.3,0.2l0.3,0C157.4,52.8,157,52.5,157,52.6z"/>
						<path id="XMLID_469_" class="st23" d="M153,49.3c-0.1,0.1,0,0.2,0,0.3l0.3,0.1C153.1,49.6,152.9,49.5,153,49.3z"/>
						<path id="XMLID_468_" class="st23" d="M152.9,49.7l-0.4-0.1C152.8,49.8,152.9,49.8,152.9,49.7z"/>
						<polygon id="XMLID_467_" class="st23" points="154.3,51.1 155.1,51.2 154.2,51 						"/>
						<polygon id="XMLID_466_" class="st23" points="151.6,48.4 151.9,48.4 151.4,48.4 						"/>
						<path id="XMLID_465_" class="st23" d="M150.7,47.8c0.2,0,0-0.4,0.2-0.3c-0.2-0.2-0.5-0.3-0.7-0.3
							C150.4,47.2,150.5,47.4,150.7,47.8z"/>
						<path id="XMLID_464_" class="st23" d="M149.7,47c0.1,0.1,0.3,0.1,0.4,0.1C150,47.1,149.9,47,149.7,47z"/>
						<path id="XMLID_463_" class="st23" d="M151.9,49.1c0-0.1,0-0.2-0.2-0.4l0,0.3C151.8,49,151.8,49.1,151.9,49.1z"/>
						<path id="XMLID_462_" class="st23" d="M151.8,49L151.8,49c-0.1-0.1-0.3-0.2-0.3-0.2C151.5,48.8,151.6,48.9,151.8,49z"/>
						<path id="XMLID_461_" class="st23" d="M151.9,49.1L151.9,49.1C151.9,49.1,151.9,49.2,151.9,49.1z"/>
						<path id="XMLID_460_" class="st23" d="M153.4,50.4c-0.3,0-0.8-0.2-0.5,0.2C153.2,50.6,153,50.3,153.4,50.4z"/>
						<path id="XMLID_459_" class="st23" d="M151.9,49.5c0,0,0.4,0.3,0.4,0.3c0-0.1,0-0.2,0.1-0.1C152.5,49.6,151.9,49.5,151.9,49.5
							z"/>
						<polygon id="XMLID_458_" class="st23" points="151.7,49.4 151.9,49.5 151.8,49.4 						"/>
						<path id="XMLID_457_" class="st23" d="M150.2,47.7c-0.2-0.1-0.4-0.2-0.6-0.4c0.2,0.2,0.4,0.4,0.6,0.6
							C150.2,47.9,150.4,47.9,150.2,47.7z"/>
						<path id="XMLID_456_" class="st23" d="M150.9,48.4L150.9,48.4C150.9,48.4,150.9,48.4,150.9,48.4z"/>
						<polygon id="XMLID_455_" class="st23" points="147.9,45.5 147.9,45.6 147.9,45.5 						"/>
						<path id="XMLID_454_" class="st23" d="M150.2,48c0.1,0.2,0.2,0.2,0.4,0.2C150.4,48.1,150.3,48,150.2,48
							C150.1,47.9,150.1,47.9,150.2,48z"/>
						<path id="XMLID_453_" class="st23" d="M149.2,46.6c0,0.1,0.1,0.2,0.2,0.3C149.3,46.8,149.2,46.6,149.2,46.6z"/>
						<path id="XMLID_452_" class="st23" d="M150.9,48.3L150.9,48.3C150.9,48.2,150.9,48.2,150.9,48.3z"/>
						<path id="XMLID_451_" class="st23" d="M150.9,48.3c-0.1,0-0.2,0-0.3-0.1C150.7,48.3,150.8,48.3,150.9,48.3
							C150.9,48.3,150.9,48.3,150.9,48.3z"/>
						<path id="XMLID_450_" class="st23" d="M146.4,45.8c0.2-0.1,0.6,0.3,0.8,0.7c0.4,0.3,0.7-0.4,0.7-0.9c-0.1,0-0.2,0.1-0.5-0.2
							c0,0.2,0.5,1,0.1,0.8c-0.5-0.4-0.3-0.5-0.4-0.8c0,0.4-0.8-0.4-1-0.1l0.4,0.4C146.5,45.7,146.3,45.6,146.4,45.8z"/>
						<path id="XMLID_449_" class="st23" d="M148.5,46.2l0.1,0.1c-0.1-0.2-0.2-0.4-0.2-0.7c-0.3-0.2-0.4-0.2-0.5-0.1L148.5,46.2
							L148.5,46.2z"/>
						<path id="XMLID_448_" class="st23" d="M149.2,47c-0.3,0.1-0.6-0.2-0.6,0.1c0.4,0.4,0.4,0.2,0.7,0.3
							C148.6,46.9,149.6,47.5,149.2,47c0.1,0.1,0.3,0.2,0.4,0.3c-0.1-0.1-0.2-0.3-0.3-0.4l0,0l0,0l0,0c0,0,0,0.1,0,0L149.2,47
							C149.3,47,149.3,47,149.2,47C149.1,46.8,149.2,46.9,149.2,47c0.1,0,0.1,0,0.1,0l0,0c0,0-0.7-0.6-0.7-0.6
							C148.7,46.5,148.9,46.7,149.2,47z"/>
						<path id="XMLID_447_" class="st23" d="M152.3,50.7C152.2,50.7,152.3,50.7,152.3,50.7C152.2,50.7,152.2,50.7,152.3,50.7z"/>
						<path id="XMLID_446_" class="st23" d="M152,50.4c0.1,0,0.2,0,0.4,0.1c0.1,0.2-0.1,0.1-0.1,0.2c0.1,0,0.5,0.1,0.2-0.2l-0.1,0
							c-0.3-0.3-0.6-0.7-0.5-0.7C151.9,49.9,151.9,50.1,152,50.4z"/>
						<path id="XMLID_445_" class="st23" d="M150.4,48.8c0,0-0.2-0.1-0.3-0.2c-0.2-0.1-0.3-0.2-0.3-0.2l0.2,0.4l0.1-0.1
							C150.3,49,150.3,48.8,150.4,48.8z"/>
						<path id="XMLID_444_" class="st23" d="M147.9,45.4l0.2-0.1c0,0-0.5-0.1-0.5-0.1L147.9,45.4z"/>
						<polygon id="XMLID_443_" class="st23" points="147.3,44.6 147.5,44.5 147.2,44.4 						"/>
						<path id="XMLID_442_" class="st23" d="M175,13.1l0.2,0.1C175.1,13.1,175,13.1,175,13.1z"/>
						<path id="XMLID_441_" class="st23" d="M173.4,12.2L173.4,12.2C173.4,12.3,173.5,12.3,173.4,12.2z"/>
						<path id="XMLID_440_" class="st23" d="M146.3,21.9c0.3-0.2,0.7-0.3,0.5-0.4l-0.2,0C146.5,21.7,146.4,21.8,146.3,21.9z"/>
						<path id="XMLID_439_" class="st23" d="M159.2,11.5l-0.1,0c-0.1,0.1-0.1,0.2-0.2,0.3C159,11.6,159.1,11.5,159.2,11.5z"/>
						<path id="XMLID_438_" class="st23" d="M159.3,10.6l0.5,0.1C159.7,10.6,159.5,10.6,159.3,10.6z"/>
						<path id="XMLID_437_" class="st23" d="M182.3,19.6c0,0,0.1,0,0.2,0.1c0.1,0,0.2,0.1,0.2,0.1C182.4,19.4,182.4,19.6,182.3,19.6
							z"/>
						<path id="XMLID_436_" class="st23" d="M143.4,35.4c0-0.3,0-0.5,0-0.7C143.4,35.1,143.2,35.4,143.4,35.4z"/>
						<path id="XMLID_435_" class="st23" d="M173.3,14.7c0.1,0,0.2,0,0.2,0C173.4,14.7,173.3,14.7,173.3,14.7z"/>
						<path id="XMLID_434_" class="st23" d="M143.4,33.9c0,0.1,0,0.1,0,0.2c0.1,0.2,0.1,0.4,0.1,0.7
							C143.5,34.5,143.6,34.2,143.4,33.9z"/>
						<path id="XMLID_433_" class="st23" d="M176.2,51.4C176.1,51.4,176.1,51.4,176.2,51.4C176.1,51.4,176.1,51.4,176.2,51.4z"/>
						<path id="XMLID_432_" class="st23" d="M166.2,52.8c0.1,0,0.2-0.1,0.4-0.1C166.5,52.8,166.4,52.8,166.2,52.8z"/>
						<path id="XMLID_431_" class="st23" d="M145.4,41.2C145.5,41.4,145.4,41.2,145.4,41.2L145.4,41.2z"/>
						<path id="XMLID_430_" class="st23" d="M145,42.5c0,0-0.1,0-0.1,0C145,42.5,145,42.5,145,42.5z"/>
						<path id="XMLID_429_" class="st23" d="M142,31.8L142,31.8C142,31.9,142,31.8,142,31.8z"/>
						<path id="XMLID_428_" class="st23" d="M145.4,41.5c0-0.1,0-0.2-0.1-0.3C145.4,41.3,145.4,41.4,145.4,41.5z"/>
						<path id="XMLID_427_" class="st23" d="M145.5,41.4c0,0.1,0,0.1,0.1,0.2C145.6,41.6,145.6,41.6,145.5,41.4z"/>
						<path id="XMLID_426_" class="st23" d="M145.2,40.9c0.1,0.1,0.1,0.2,0.1,0.3c0,0,0-0.1,0-0.1C145.3,41.1,145.3,41.1,145.2,40.9
							z"/>
						<path id="XMLID_425_" class="st23" d="M185.4,35.4C185.3,35.5,185.3,35.5,185.4,35.4C185.4,35.7,185.4,35.6,185.4,35.4z"/>
						<polygon id="XMLID_424_" class="st23" points="148.2,16.1 148.2,16.1 148.2,16.1 						"/>
						<path id="XMLID_423_" class="st23" d="M148.7,15.4c-0.1,0.4-0.3,0.6-0.5,0.7l0.6,0.3L148.7,15.4z"/>
						<path id="XMLID_416_" class="st23" d="M178.5,15.6l-0.3-0.5c0.7,0.2,1.1,0.7,0.8,0.1c-0.3,0.2-0.7-0.2-1.2-0.5
							c-0.5-0.3-1-0.7-1.2-0.4l-0.2-0.3c0.1,0.1,0.1,0.1,0.2,0.1c-0.4-0.7-0.7,0.1-1.5-0.5c-0.3-0.2-0.4-0.4-0.2-0.4l-0.7-0.2
							c-0.2-0.1-0.1-0.2,0.1-0.1c0,0-1.1-0.5-1.1-0.5l0,0c-0.2,0-0.6,0-0.8,0c-0.2-0.2,0.2,0,0.1-0.1c0,0-0.6-0.1-0.6-0.1
							c-0.2-0.3,0.4-0.2,0.8,0c-0.3-0.9-0.5-0.1-1.6-0.9l0.6,0.1c-0.2-0.5-0.7-0.5-1.3-1c0.1,0.2,1.1,1,0.4,1
							c-0.2-0.1-0.4-0.2-0.8-0.2c0.1-0.2-0.3-0.3-0.8-0.4l0.1-0.3c-0.5,0-0.5,0.1-0.8,0.2c-0.5-0.2-0.6-0.4-0.7-0.7
							c-0.9-0.2,0.5,0.5-0.5,0.4c-0.7-0.2-1.2-0.2-2.1-0.1c-0.5-0.1,0.1-0.2-0.1-0.3l-0.5,0.2c-0.1,0-0.1-0.1,0-0.1
							c-0.4,0.1,0,0.3-0.6,0.4c-0.1,0.2-0.4,0-0.8-0.1c-0.4-0.1-0.8-0.2-1.2,0c-0.2-0.1,0.1-0.2,0-0.3c-1,0.3-0.9,0.2-1.6,0.7
							l-0.7-0.1c0.5,0.2-0.1,0.5-0.6,0.9c0.2,0.1,0.4,0.2,0.5,0.2c0,0-0.2,0.1-0.4,0.2c-0.2,0.1-0.4,0.2-0.4,0.2
							c-0.1,0-0.1-0.2,0.1-0.3c-0.1,0-0.1,0.1-0.1,0.1c-0.3,0-0.2-0.3,0-0.5c0.1,0,0.2,0.1,0.4,0.1c0.2-0.2,0.3-0.5,0.3-0.6
							c-0.1,0-0.2,0.1-0.3,0.1c0-0.1,0.1-0.1,0-0.1c0,0-0.1,0-0.2,0.2l-0.3-0.3l0,0.2l-1.2,0.1c-0.4,0.3-0.7,0.6-1.1,1
							c-0.4,0.4-0.8,0.7-1.4,1c0.2-0.4-0.1-0.4-0.2-0.7c0.5,0.2,0.9-0.5,1.6-0.7c-0.4,0.1-0.3-0.1-0.3-0.2L155,12
							c-0.1-0.2-0.3-0.1-0.7,0c0.4,0.3-0.7,0.7-1.1,1.1c-0.1-0.1-0.1-0.3,0.5-0.6c-0.8,0-0.5,0.9-1.3,1c0.1-0.1,0.2-0.1,0.2-0.2
							c-0.2,0.3-1,0.7-0.9,0.4l0.1-0.1c-0.2,0.1-0.5,0.3-0.8,0.5c-0.3,0.2-0.6,0.4-0.8,0.7c-0.5,0.5-0.9,0.9-0.8,1.1
							c0,0-0.2-0.5-0.2-0.6c0,0,0,0.1-0.1,0.4c0,0.2-0.1,0.5-0.1,0.8c-0.1,0.6-0.2,1.1-0.2,1.1c-0.1-0.4-1.2-0.6-0.7-1.3
							c-0.2,0.1-0.5,0.3-0.8,0.7c0.1-0.1,0.7,0.1,0.5,0.3c-0.7,0.2-0.4,0.2-1.2,0.5c0.2-0.1,0.5,0.5,0.2,0.7c0-0.1-0.5-0.3-0.4-0.5
							c0,0-0.1,0.3-0.1,0.5c0,0.3-0.1,0.6-0.1,0.6c0.1-0.3-0.3-0.3-0.6-0.3c0.1,0-0.5,0.7-0.6,0.9l0.4-0.3c-0.7,0.8,0,1.3-0.6,2.2
							c0-0.2-0.4-0.6-0.8-0.2c0.1,0.4,0.7,1.6,0.5,2.5l-0.2,0.1c0,0,0,0.2-0.1,0.4c0,0.2,0,0.4,0,0.4c-0.3-0.6-0.5-2.1-0.5-2.9
							c-0.3,0.3-0.2,0-0.5,0.6c-0.2,0.1-0.1-0.4,0-0.6l-0.7,1.3c0.2,0,0.1,0.3,0.1,0.6c0,0.3-0.1,0.6,0.1,0.6c0,0,0-0.1,0-0.3
							c0-0.2,0.1-0.4,0.1-0.5c0.1-0.4,0.2-0.8,0.2-0.8c0.3,0.1,0.4,1.2,0.1,2.1c-0.2,0.2-0.5-0.4-0.6-0.4c0.1,0.2-0.1,1-0.2,1.1
							l0-0.5c-0.3,0.5,0.1,1-0.4,1.6c-0.1,0.2-0.6,0.6-0.4,0.7c0.5-0.3,1.6-0.1,1.9,0.2c-0.1,0.1-0.6,1-0.8,1.3
							c-0.4,0.3-0.6-0.7-0.9-0.4c0.1,0,0.2,0.3,0.2,0.4c-0.1,0.2-0.3-0.1-0.3,0.4c0.3,0.1-0.2,1.1,0.2,0.3c0,0.5-0.2,0.5-0.2,1.1
							c0.2-0.2,0.7,0.6,0.8,1.1c-0.1,0-0.2,0.1-0.3,0.1c-0.1,1-0.2,1.6-0.1,2.6c-0.1,0.1-0.1,0.6-0.3,0.4c0.1,0.1,0.2,0.3,0.3,0.6
							c-0.2,0.6-0.1-0.7-0.4-0.2c0.2,0,0.4,0.8,0.6,1.2c0.3-0.2-0.1-1-0.3-1.4c0.4,0,1,0.6,1.3,1.6c0.2,0.7-0.2,0.4-0.1,0.5
							c0.1,0.7,0.4,1,0.6,1.2c0.2,0.2,0.4,0.4,0.5,1c-0.1,0.5-0.5,0.2-0.6,0.4c-0.3-0.6-0.2-1-0.3-1.4l0,0.6
							c-0.1-0.2-0.3-0.6-0.3-0.8c-0.2,0.5,0.7,2.5,1,3.6c0.2,0.2,0.4,0.4,0.4,0.2l-0.2-0.3c0.1-0.4,0.6,0.5,0.5,0
							c0.4,0.4,0.7,0.8,1,1.4l-0.2,0.3c0.1-0.1-0.1-0.5-0.3-0.6c0.3,0.2,0.2,1.1,0.7,1.2l-0.1-0.5c0.4,0.3,0.9,0.7,1.2,1.2
							c0.1-0.4-0.1-0.1-0.1-0.6c-0.2,0.6-0.8-1.3-0.8-0.5c0.1-0.6-0.3-0.7-0.2-1.4c-0.1,0.1-0.1,0.3-0.3-0.2c0,0-0.1,0-0.1-0.1
							c0,0,0,0,0,0l0,0c0,0,0,0,0,0c0,0.1,0,0.2,0,0.3c-0.3-0.1-0.6-0.8-0.9-1c-0.1-0.3,0.2,0.1,0.2-0.1c0,0-0.3-0.3-0.3-0.3
							c0.2-0.1,0.1-0.9,0.4-0.3l-0.2-0.6c0-0.4-0.1-0.9-0.3-1.1c0-0.3-0.4-0.6-0.2-0.4l-0.4-0.9l0.1,0c-0.1-0.5-0.3-0.9-0.4-1.4
							c-0.1-0.5-0.2-1,0-1.6c-0.1-0.3-0.2-0.6-0.1-1.2l0.2-0.1c-0.1-0.4,0.2-1.2,0-1.4c0.3-0.2,0.3-0.7,0.4-1.2
							c0.1-0.5,0.1-1.1,0.2-1.4l-0.2-0.1c0.1-0.5,0.2-1,0.2-1.6l-0.2,0c-0.1-0.6,0.6-1.3,0.8-2.1c0.1,0.1,0,0.3-0.1,0.4
							c0.2-0.2,0.3-0.4,0.4-0.7c0.1-0.2,0.2-0.5,0.2-0.8c0.1-0.5,0.2-1.1,0.6-1.4c0-0.2,0.2-0.4,0.3-0.5c0,0,0,0,0,0.1
							c0,0,0,0,0.1-0.1c0.1-0.1,0.2-0.1,0.3-0.2c-0.1,0.1-0.2,0.1-0.2,0.2c0.1-0.2,0.2-0.4,0.3-0.7l0.3,0c0,0,0,0,0-0.1
							c0.2-0.2,0-0.2-0.2-0.2c0-0.1,0.1-0.3,0.1-0.4c0.4,0.1,0.3-0.6,0.8-0.6c0-0.1,0.1-0.4,0.3-0.7c0.2-0.3,0.3-0.6,0.2-0.8
							c0,0,0.1,0,0,0.1c0.2-0.2,0.5-0.4,0.6-0.7l0.3,0.1c0,0,0.2-0.8,0.2-0.8c0.4-0.1,0.6-0.2,0.5,0.3c0.5-0.9,0.5-0.6,0.8-1.4
							l0.1,0.2c0.2-0.2,0.4-0.7,0.7-0.6c0.7-0.1,2.7-1.8,4.3-2.1c-0.3-0.2-0.1-0.2,0.2-0.2c0.3,0,0.6,0,0.5-0.2
							c0.1,0.1,0.4,0.1,0.2,0.3c0.7-0.4,1.2-0.2,1.7-0.7c0.1,0.1-0.1,0.2,0,0.3c0.1,0,0.2-0.2,0.3-0.1c0.1,0.1-0.1,0.1-0.2,0.2
							c0.8-0.2,0.8-0.7,0.8-1.1c0.5,0.1,0.7,0,0.9-0.3c0.2,0.1,0.4,0.2-0.1,0.3c0.3,0,1.8-0.1,1.8-0.4c0.1,0.1,0.4,0,0.5,0
							c0.7,0,0.7,0,1.4-0.1l-0.2,0c0.3-0.4,0.6-0.1,1.1-0.1l0,0c1.2,0.4,0.6-0.1,1.7,0.3l0-0.2c0.2-0.5,1,0.5,1.8,0.4l-0.2-0.2
							c0.4-0.1,0.9,0.9,1.2,1.1c0.1,0.1-0.1,0-0.3,0c0.9,0.5,0.2-0.3,0.9-0.2c0.1,0.2-0.3,0.4,0.2,0.5c0.2,0.2,1.5,0,2,0.5
							c-0.1-0.2-0.2-0.4,0.2-0.3c0.5,0.2,1.1,1,1.7,0.9c0,0.1,0,0.1,0,0.1c0.4,0.1,1.2,0.5,1.6,0.5c-0.2,0.9,2.3,1.2,1.8,1.8l1,0.8
							l-0.1,0c0.5,0.6,0.8,0.7,1.2,0.8c0.1,0.2-0.1,0.1-0.1,0.1c0.7,1,0.7,1.1,1.6,1.6l-0.1,0.2c0.3,0.1,0.6,1.6,1.4,2.5
							c0,0-0.1,0-0.2-0.1c0.4,0.5,0.6,1.3,0.8,1.9c0.1,0.7,0.3,1.2,0.8,1.3c0,0,0.4,0.8,0.4,0.8c-0.2-1.1,0.4,0.1,0.4-0.4
							c0.2,0.4,0,1.2-0.2,0.7l0-0.1c-0.5-0.1,0.2,1.4-0.1,1.4c0.4,2.1,0.2,4.3,0,6.3l0.4-0.2c0,0-0.1,0.7-0.1,0.7
							c-0.1,0.2-0.3,0.2-0.2-0.3c-0.2,0.2,0,0.9,0.1,0.9c-0.3,1-0.4-0.5-0.4-0.2l0,0.4l0.1-0.1c0.1,0.3,0.3,0.4,0.1,1
							c-0.2,0.4-0.3,0.1-0.3,0.3c0,0,0,0-0.1,0.2l-0.2,0.8l0.4-0.3c0,0.4-0.2,0.8,0.2,0.5c-0.3,0.2-0.7,1-0.9,1.7
							c-0.3,0.7-0.6,1.4-0.8,1.6c0,0.6-0.4,1.1-0.7,1.6c0.1-0.1,0.5,0,0.1,0.5c-0.2-0.3-0.4-0.1-0.7,0.2c-0.3,0.3-0.5,0.6-0.9,0.6
							c0.3-0.1,0,0.3-0.2,0.6c-0.2,0.3-0.4,0.6,0,0.5c-0.4,0.3-0.2-0.1-0.6,0c-0.6,1.1-1.9,1.7-2.9,2.6c0,0.1,0.3,0,0.1,0.3
							l-0.9,0.1c-0.2,0.2,0.1,0.6-0.5,0.6c0.1,0,0.3,0.1,0.1,0.2c-1.3,0.6-2.5,1.3-3.9,1.9c-0.7,0.3-1.3,0.6-2.1,0.7
							c-0.7,0.1-1.4,0.2-2.2,0.1c0.4,0.1,0.2,0.2-0.1,0.2c0.2,0,0,0.2,0.1,0.3c0,0-1.2-0.1-1.2-0.2c-0.2,0.3-1.3,0.1-1.4,0.4
							l0.4-0.1c-0.5,0.4,0.8,0.8,0.7,1.3c0.5-0.4,1.7,0.4,2.6-0.3c0.2,0.1-0.2,0.2,0,0.3c0.2-0.2,0.5-0.4,1.1-0.4l0,0.1
							c1.5-0.4,2.2-0.5,4-1l-0.2-0.2c0.4-0.1,0.5-0.1,0.7-0.1c0.2-0.5-1,0.5-0.8-0.1c0.3,0.1,0.9-0.2,1.5-0.5
							c0.6-0.3,1.1-0.6,1.4-0.5c0.5-0.3-0.3-0.1,0.2-0.4l0.2,0l0-0.2c0.4-0.2,0.6-0.2,0.7-0.1c-0.1,0-0.2,0.2-0.3,0.3
							c0.5-0.2,1.1-0.9,1.3-1l-0.5,0.3c1.3-1,2.8-2.3,3.6-3.7l-0.2,0c0.6-1,0.7-0.7,1.4-1.8l0,0.1c0.1-0.3,0.2-0.6,0.4-0.9
							c-0.1,0.4,0.5-0.4,0.4,0.1c0.5-1.2,0.2-0.6,0.2-1.6l0.2-0.1c0-0.3-0.1-0.4,0.1-1c-0.1,0.5,0.4-0.3,0.4,0.4
							c0.5-0.5,0.6-1,0.7-1.5c0.1-0.4,0.1-0.7,0.5-0.9c-0.3-0.8-0.7,1-0.7,0.7c-0.3,0.2-0.2-0.6,0-1c0.2-0.4,0.8-0.5,1.1-1.6
							c0,0.1,0,0.1,0,0.2c0.2-0.4,0.1-0.8,0.3-1.3c-0.3-0.3,0.1-0.7-0.3-0.8l-0.1,1c0-0.6-0.4-1.2,0-2.1c0.1,0.1,0.1,0.4,0.2,0.6
							c0.1-0.3,0-0.5,0.1-0.8c0.4,0.1-0.1,1.2,0.1,1.9c0.2-0.3-0.1-1.2,0.3-0.8c-0.2-0.3-0.2-0.5-0.1-0.8c0.1-0.3,0.1-0.7-0.1-1
							l0.2,0.1c0-0.1-0.1-0.4-0.1-0.6l0.3,0.4c-0.2-0.6,0.3-1.2,0.1-1.8c0.1,1.2-0.3,0.3-0.4,0.8c-0.4-1.5,0.6-0.9,0.4-2.6
							c0.1,0.2-0.1,0.9-0.2,0.5c0-0.3,0.1-0.8,0.2-1c-0.2-1.1-0.2,0.2-0.4-0.3c0.2-0.4-0.2-0.5-0.4-1l0.2,0
							c-0.1-1.3-0.6-0.2-0.6-1.4l0.4,0.4l-0.2-0.6l0.3,0.1c-0.4-0.6-0.3-0.8-0.5-1.4c-0.1,0.2-0.4,0.1-0.6-0.5c0-0.4,0.3,0.1,0-0.6
							c0.2,0.1,0.4,0.2,0.4,0.6c0.1,0,0.2,0.1,0.3,0.1c0-0.4-0.3-1-0.4-1.3c0,0.1,0.1,0.2,0.1,0.3c0,0-0.2-0.2-0.4-0.5
							c-0.2-0.2-0.4-0.5-0.4-0.5c0-0.2,0.1-0.1,0.3,0c-0.1-0.2-0.3-0.3-0.5-0.6c0.2,0,0.4-0.1,0.7,0.3l-0.7-0.9
							c0-0.1-0.1-0.6,0.1-0.5c-0.2-0.6-1.1-1.1-1.4-1.9c-0.1,0-0.1-0.1-0.3-0.2c-0.4-0.6-0.6-1.4-1.5-1.9l-0.1-0.6
							c-0.5-0.5,0.1,0.8-0.8,0c-0.6-0.5,0-0.4-0.1-0.7c-0.4-0.2-1.2-0.4-1.6-1.1C178.2,15.3,178.3,15.4,178.5,15.6z M170.9,11.3
							c0.2,0,0.6,0,0.6,0.2C171.2,11.6,171.1,11.5,170.9,11.3z M157.9,11.3c0.1-0.1,0.3-0.1,0.5-0.1
							C158.3,11.3,158.1,11.3,157.9,11.3z M144.3,39.2L144.3,39.2C144.3,38.8,144.3,38.9,144.3,39.2z M144.5,39.9
							c0.1,0.1,0.1,0,0.1,0c-0.1,0-0.1-0.2-0.2-0.3C144.3,39.6,144.3,39.7,144.5,39.9z M183.3,37.5l0.1-0.1
							C183.4,37.7,183.4,37.6,183.3,37.5z"/>
						<path id="XMLID_415_" class="st23" d="M159.3,10.7c0.1,0,0.1,0.1,0.1,0.1C159.5,10.7,159.4,10.7,159.3,10.7z"/>
						<path id="XMLID_414_" class="st23" d="M182.3,19.6L182.3,19.6C182.3,19.6,182.3,19.6,182.3,19.6L182.3,19.6z"/>
						<path id="XMLID_413_" class="st23" d="M141.4,28.7c0.1-0.2,0.1-0.2,0.2-0.3C141.5,28.4,141.4,28.4,141.4,28.7z"/>
						<path id="XMLID_412_" class="st23" d="M146.5,43l-0.3-0.3c0.1,0.2,0.1,0.3,0.1,0.4C146.4,43,146.4,42.9,146.5,43z"/>
						<path id="XMLID_411_" class="st23" d="M147.7,47.1c0.1,0,0.1,0.1,0.2,0.1l0.1-0.1C147.8,46.9,147.6,46.9,147.7,47.1z"/>
						<path id="XMLID_410_" class="st23" d="M146,43.8c-0.1,0.1,0,0.4,0.3,0.6c0,0,0,0,0,0C146.6,44.3,146.3,44.1,146,43.8z"/>
						<path id="XMLID_409_" class="st23" d="M146.4,44.5c0.1,0.1,0.1,0.2,0.2,0.2C146.7,44.7,146.5,44.6,146.4,44.5z"/>
						<path id="XMLID_408_" class="st23" d="M144.9,40.6c0,0.2,0.3,0,0.2,0.1C145.5,40.8,144.4,40,144.9,40.6z"/>
						<polygon id="XMLID_407_" class="st23" points="145.6,44.4 145.7,44.2 145.5,44.1 						"/>
						<path id="XMLID_406_" class="st23" d="M144.5,42l0.2,0.5c0,0,0.1,0,0.1,0.1C144.6,42.3,144.5,42,144.5,42z"/>
						<path id="XMLID_405_" class="st23" d="M144.8,42.6c0.1,0.2,0.2,0.3,0.3,0.3C145,42.9,144.8,42.7,144.8,42.6z"/>
						<polygon id="XMLID_404_" class="st23" points="145.2,43.8 145.1,43.7 144.9,43.3 						"/>
						<path id="XMLID_403_" class="st23" d="M142.7,36.6l-0.2-0.6c-0.1,0-0.1,0.1-0.1,0.3C142.5,36.5,142.6,36.7,142.7,36.6z"/>
						<path id="XMLID_402_" class="st23" d="M142.4,38.5c0-0.2,0.1-0.2,0.1-0.3l-0.3,0.1L142.4,38.5z"/>
						<path id="XMLID_401_" class="st23" d="M141.9,36.8c-0.1,0-0.4-0.8-0.2-0.1C141.8,36.8,142,37.4,141.9,36.8z"/>
						<polygon id="XMLID_400_" class="st23" points="142.4,27.9 142.4,28.1 142.9,28.2 						"/>
						<path id="XMLID_399_" class="st23" d="M144.4,20.1c-0.5,0.6,0.2,0.3-0.3,0.8c0,0.2,0.4-0.4,0.4-0.2
							C144.6,20.3,144.8,20.1,144.4,20.1z"/>
						<path id="XMLID_398_" class="st23" d="M144.5,20.7c0,0.1,0,0.1-0.1,0.2C144.5,20.8,144.5,20.7,144.5,20.7z"/>
						<polygon id="XMLID_397_" class="st23" points="164.6,52.7 164.2,52.6 164.5,52.8 						"/>
						<path id="XMLID_396_" class="st23" d="M163.8,53.1l-0.1-0.3l-0.3,0.3C163.6,53.1,163.8,53.1,163.8,53.1z"/>
						<path id="XMLID_395_" class="st23" d="M169.8,10.3L169.8,10.3c0,0.2,0.1,0.2,0.3,0.3L169.8,10.3z"/>
						<polygon id="XMLID_394_" class="st23" points="175.7,13.1 175.6,13.1 175.6,13.4 						"/>
						<path id="XMLID_393_" class="st23" d="M180.2,16.3c-0.1-0.2-0.4-0.3-0.5-0.5C180,16.1,179.9,16.6,180.2,16.3z"/>
					</g>
				</g>
			</g>
		</g>
	</g>
	<g id="XMLID_62_" class="st22">
		<g id="XMLID_297_">
			<g id="XMLID_301_">
				<g id="XMLID_302_">
					<g id="XMLID_303_">
						<path id="XMLID_511_" class="st24" d="M131.9,191.8c0.7,0.1,0.4-0.8,0.5-0.9C131.3,191,131.9,192,131.9,191.8z"/>
						<polygon id="XMLID_510_" class="st24" points="120.9,192.8 121.1,192.5 119.4,193 						"/>
						<path id="XMLID_509_" class="st24" d="M110.8,190.4c0.5,1.6,3.7,0.9,5.3,1.7l0.2,0.4l1.1-0.9c-1.1-0.2-2.4-0.2-3.6-0.4
							C112.6,191,111.5,190.8,110.8,190.4z"/>
						<path id="XMLID_508_" class="st24" d="M106.8,185.7c0.1,0.6-1.2,0,1.1,0.6c-0.1-0.1-0.1-0.1-0.2-0.2
							C107.5,186,107.3,185.9,106.8,185.7z"/>
						<path id="XMLID_507_" class="st24" d="M107.7,186.1C108.7,186.4,107.3,185.4,107.7,186.1L107.7,186.1z"/>
						<path id="XMLID_506_" class="st24" d="M103.2,184.5l1.5,0.1c-0.1-0.4-1.2-1-0.7-1C102.6,183.3,102.7,183.7,103.2,184.5z"/>
						<path id="XMLID_384_" class="st24" d="M101.6,184.9c0,0,0.2,0,0.4,0.1c0.2,0,0.4,0.1,0.4,0.1
							C102.2,184.8,102.1,184.7,101.6,184.9z"/>
						<path id="XMLID_383_" class="st24" d="M103.9,185.2l-1.6-0.2c0.1,0.3-0.1,0.7,0.7,0.1C102.7,185.5,103.2,185.2,103.9,185.2z"
							/>
						<path id="XMLID_382_" class="st24" d="M104.6,185.8c0.6,0.6,1.5,1.2,0,1.1C107.1,187.7,107.1,186.6,104.6,185.8z"/>
						<path id="XMLID_381_" class="st24" d="M109.9,191.6c0,0,0.2,0.2,0.5,0.4c0.2,0.2,0.5,0.4,0.5,0.4l1-0.2
							C111.3,192.3,110,191.2,109.9,191.6z"/>
						<path id="XMLID_380_" class="st24" d="M96.1,179.8c-0.2,0.2,0,0.9-0.2,1.3c0,0,0.3,0.1,0.5,0.1c0.3,0.1,0.5,0.1,0.5,0.1
							C96.6,180.9,95.9,180.2,96.1,179.8z"/>
						<path id="XMLID_379_" class="st24" d="M95.9,181.1l-1.6-0.4C95.5,181.5,95.8,181.4,95.9,181.1z"/>
						<path id="XMLID_378_" class="st24" d="M100.6,186.2c0,0,0.7,0.1,1.4,0.1c0.7,0,1.4,0,1.4,0s-0.8-0.1-1.6-0.1
							c-0.4,0-0.8-0.1-1.1-0.1c-0.3,0-0.5-0.1-0.5-0.1L100.6,186.2z"/>
						<path id="XMLID_377_" class="st24" d="M91.4,176.5l1.1-0.1c0,0-0.5,0-0.9,0c-0.5,0-0.9,0-0.9,0L91.4,176.5z"/>
						<path id="XMLID_376_" class="st24" d="M88.3,174.2c0.8,0,0-1.3,0.7-1.2c-0.8-0.6-1.8-0.8-2.7-1
							C87.1,172.5,87.7,173.1,88.3,174.2z"/>
						<path id="XMLID_375_" class="st24" d="M84.9,171.7c0.4,0.2,0.9,0.3,1.4,0.4C85.9,171.9,85.4,171.7,84.9,171.7z"/>
						<path id="XMLID_374_" class="st24" d="M92.2,179.1c0-0.2,0.1-0.7-0.5-1.4l0,1C91.9,178.9,92.1,179,92.2,179.1z"/>
						<path id="XMLID_373_" class="st24" d="M91.8,178.8L91.8,178.8c-0.5-0.4-0.9-0.7-1-0.8C90.9,178.1,91.2,178.3,91.8,178.8z"/>
						<path id="XMLID_372_" class="st24" d="M92.4,179.2c0,0-0.1-0.1-0.1-0.1C92.2,179.2,92.3,179.3,92.4,179.2z"/>
						<path id="XMLID_371_" class="st24" d="M97.4,183.6c-1,0-3-0.6-1.7,1C96.5,184.4,95.8,183.5,97.4,183.6z"/>
						<path id="XMLID_370_" class="st24" d="M92.4,180.6c0,0,0.3,0.3,0.6,0.5c0.3,0.3,0.6,0.5,0.6,0.5c0.1-0.2,0-0.6,0.5-0.6
							c0,0-0.5-0.1-0.9-0.2C92.8,180.7,92.4,180.6,92.4,180.6z"/>
						<polygon id="XMLID_369_" class="st24" points="91.6,180.3 92.4,180.6 91.9,180.1 						"/>
						<path id="XMLID_368_" class="st24" d="M86.4,174.1c-0.8-0.2-1.4-0.7-2-1.2c0.5,0.8,1.2,1.5,1.9,2.1
							C86.5,174.9,87.2,174.8,86.4,174.1z"/>
						<path id="XMLID_367_" class="st24" d="M88.9,176.5c0,0-0.1,0-0.2-0.1C88.8,176.6,88.8,176.7,88.9,176.5z"/>
						<path id="XMLID_366_" class="st24" d="M78.4,166.6c0,0.1,0,0.1,0,0.2c0,0,0.1,0,0.1-0.1L78.4,166.6z"/>
						<path id="XMLID_365_" class="st24" d="M86.3,175.2c0.4,0.6,0.9,0.7,1.4,0.8c-0.5-0.3-0.9-0.6-1.4-1
							C86.1,175,86.1,175.1,86.3,175.2z"/>
						<path id="XMLID_364_" class="st24" d="M82.9,170.3c0.1,0.4,0.3,0.8,0.5,1.2C83.4,171.1,83.2,170.2,82.9,170.3z"/>
						<path id="XMLID_363_" class="st24" d="M88.7,176.1c0,0,0.1,0,0.1,0C88.7,175.9,88.7,176,88.7,176.1z"/>
						<path id="XMLID_362_" class="st24" d="M88.7,176.1c-0.4-0.1-0.7-0.1-1.1-0.2c0.4,0.2,0.8,0.4,1.1,0.5
							C88.7,176.4,88.7,176.2,88.7,176.1z"/>
						<path id="XMLID_361_" class="st24" d="M72.5,168c0.7-0.4,2.4,0.7,2.9,2.5c1.6,0.9,2.8-1.7,3-3.7c-0.3,0.2-0.6,0.4-1.9-0.6
							c0,0.7,1.6,3.5,0.1,2.9c-1.8-1.4-0.9-1.6-1.3-2.7c-0.2,1.3-2.9-1.4-3.7-0.1c0,0,0.4,0.3,0.8,0.7c0.4,0.3,0.8,0.6,0.8,0.6
							C73,167.7,72.3,167.4,72.5,168z"/>
						<path id="XMLID_360_" class="st24" d="M80.4,169.2l0.5,0.4c-0.4-0.6-0.6-1.3-0.7-2.4c-1-0.6-1.4-0.6-1.6-0.4
							c0,0,0.5,0.6,1,1.3c0.3,0.3,0.5,0.6,0.7,0.9c0.2,0.2,0.3,0.4,0.3,0.4L80.4,169.2z"/>
						<path id="XMLID_359_" class="st24" d="M83,171.8c-1,0.3-2.4-0.7-2.3,0.7c1.5,1.4,1.5,0.5,2.6,1
							C80.8,171.5,84.3,173.8,83,171.8c0.5,0.4,0.9,0.8,1.3,1.1c-0.3-0.5-0.6-0.9-0.9-1.4c0,0,0,0.1,0,0.1l0,0l0,0
							c0,0.2,0,0.2-0.1,0.1c0,0,0,0-0.1,0C83.2,171.7,83.1,171.8,83,171.8c-0.5-0.8,0.1-0.3,0.3-0.1c0,0,0.1,0,0.1-0.1l0,0
							c0,0-0.7-0.5-1.3-1c-0.6-0.5-1.3-1-1.3-1C81.3,170.2,81.9,170.8,83,171.8z"/>
						<path id="XMLID_358_" class="st24" d="M93.2,185.3c0-0.1,0-0.2,0-0.2C93,185,92.8,185,93.2,185.3z"/>
						<path id="XMLID_357_" class="st24" d="M92.3,184.1c0.3,0,0.6-0.2,1.2,0.3c0.4,0.6-0.2,0.3-0.3,0.6c0.5,0.1,1.7,0.3,0.7-0.8
							l-0.3,0c-1-1-1.8-2.8-1.5-2.8C92,182.3,92,183,92.3,184.1z"/>
						<path id="XMLID_356_" class="st24" d="M87,178.2c0,0-0.2-0.1-0.4-0.2c-0.2-0.1-0.5-0.3-0.8-0.5c-0.6-0.4-1.2-0.7-1.2-0.7
							l0.6,1.5l0.2-0.4C86.6,179,86.7,178.4,87,178.2z"/>
						<path id="XMLID_355_" class="st24" d="M78.6,166.1l0.9-0.3c0,0-0.5-0.1-1-0.2c-0.5-0.1-1-0.2-1-0.2L78.6,166.1z"/>
						<path id="XMLID_354_" class="st24" d="M76.4,163.5l0.7-0.4c0,0-0.2-0.1-0.5-0.2c-0.2-0.1-0.5-0.2-0.5-0.2L76.4,163.5z"/>
						<path id="XMLID_353_" class="st24" d="M173,53.2l0.9,0.2C173.5,53.3,173.2,53.2,173,53.2z"/>
						<path id="XMLID_352_" class="st24" d="M167.4,50.1l-0.3,0.3C167.5,50.3,167.6,50.2,167.4,50.1z"/>
						<path id="XMLID_351_" class="st24" d="M72.9,84.9c1.2-0.6,2.8-1,2-1.3L74,83.4C73.7,84.2,73.3,84.6,72.9,84.9z"/>
						<path id="XMLID_350_" class="st24" d="M117.6,48.1c-0.1-0.1-0.3-0.1-0.4-0.2c-0.2,0.4-0.4,0.7-0.6,1
							C116.9,48.6,117.2,48.3,117.6,48.1z"/>
						<path id="XMLID_349_" class="st24" d="M117.8,44.4l1.7,0.3C119.1,44.5,118.5,44.4,117.8,44.4z"/>
						<path id="XMLID_348_" class="st24" d="M198.8,76.2c0,0,0.3,0.1,0.7,0.2c0.3,0.1,0.7,0.2,0.7,0.2
							C199.2,75.2,199.3,76,198.8,76.2z"/>
						<path id="XMLID_347_" class="st24" d="M62.9,131.7c0.2-1,0.3-1.8,0.2-2.5C62.8,130.5,62.1,131.5,62.9,131.7z"/>
						<path id="XMLID_346_" class="st24" d="M166.4,60c0.5,0.1,0.8,0,0.8-0.1C166.7,59.7,166.4,59.7,166.4,60z"/>
						<path id="XMLID_345_" class="st24" d="M62.9,126.5c-0.1,0.2-0.1,0.3-0.2,0.5c0.2,0.7,0.3,1.4,0.4,2.3
							C63.4,128.4,63.6,127.4,62.9,126.5z"/>
						<path id="XMLID_344_" class="st24" d="M177.1,188c-0.1,0-0.2,0.1-0.3,0.1C176.8,188.1,176.9,188.1,177.1,188z"/>
						<path id="XMLID_343_" class="st24" d="M141.9,192.2c0.3-0.1,0.8-0.2,1.3-0.2C142.9,192,142.5,192,141.9,192.2z"/>
						<path id="XMLID_342_" class="st24" d="M69.6,151.7C70,152.3,69.8,151.7,69.6,151.7L69.6,151.7z"/>
						<path id="XMLID_341_" class="st24" d="M68.2,156.4c-0.2-0.1-0.3-0.1-0.5-0.1C67.9,156.3,68.1,156.3,68.2,156.4z"/>
						<path id="XMLID_340_" class="st24" d="M57.4,119.1C57.4,119.1,57.4,119.1,57.4,119.1C57.2,119.3,57.2,119.3,57.4,119.1z"/>
						<path id="XMLID_339_" class="st24" d="M69.8,152.8c0-0.3-0.1-0.6-0.2-0.9C69.6,152.1,69.7,152.3,69.8,152.8z"/>
						<path id="XMLID_338_" class="st24" d="M70.1,152.5c0.1,0.2,0.1,0.4,0.2,0.6C70.5,153.1,70.5,153,70.1,152.5z"/>
						<path id="XMLID_337_" class="st24" d="M69.2,150.8c0.2,0.4,0.3,0.7,0.4,1.1c0-0.2,0-0.2,0.1-0.2
							C69.6,151.5,69.4,151.2,69.2,150.8z"/>
						<path id="XMLID_336_" class="st24" d="M209.3,131.9c0,0-0.1,0.1-0.1,0.2C209.4,132.9,209.4,132.6,209.3,131.9z"/>
						<path id="XMLID_335_" class="st24" d="M78.7,63.9C78.6,63.9,78.6,63.9,78.7,63.9C78.7,63.9,78.7,63.9,78.7,63.9L78.7,63.9z"/>
						<path id="XMLID_334_" class="st24" d="M80.4,61.4c-0.2,1.6-0.9,2-1.7,2.5c0,0,0.6,0.3,1.2,0.6c0.6,0.3,1.2,0.6,1.2,0.6
							s-0.2-0.9-0.4-1.8C80.6,62.3,80.4,61.4,80.4,61.4z"/>
						<path id="XMLID_327_" class="st24" d="M185.4,61.9l-1.1-2c2.8,0.7,3.9,2.3,3.1,0.1c-1,0.9-2.6-0.4-4.2-1.6
							c-0.8-0.6-1.7-1.2-2.4-1.5c-0.8-0.3-1.4-0.3-1.9,0.2l-0.8-1.3c0.3,0.3,0.5,0.2,0.8,0.4c-1.5-2.6-2.7,0.5-5.4-1.7
							c-0.9-0.8-1.4-1.5-0.6-1.4l-2.6-0.7c-0.6-0.4-0.3-0.7,0.4-0.3c0,0-0.2-0.1-0.6-0.3c-0.3-0.2-0.8-0.4-1.3-0.6
							c-0.9-0.4-1.8-0.8-1.8-0.8l0.1-0.1c-0.7,0.1-2.2,0.2-2.8,0.2c-0.8-0.8,0.6-0.1,0.5-0.5c0,0-0.6-0.1-1.1-0.2
							c-0.6-0.1-1.1-0.1-1.1-0.1c-0.3-0.5,0.1-0.7,0.7-0.8c0.6,0,1.4,0.2,2.1,0.6c-0.4-1.7-0.9-1.7-1.7-1.7c-0.9,0-2,0-3.8-1.5
							c0,0,0.5,0.1,1.1,0.2c0.5,0.1,1.1,0.2,1.1,0.2c-0.7-2-2.5-2-4.6-3.7c0.4,0.7,3.9,3.9,1.3,3.7c-0.6-0.4-1.4-0.8-2.8-0.7
							c0.3-0.9-1-1.1-2.6-1.4l0.4-1.2c-1.8-0.1-1.8,0.6-3,0.9c-1.9-0.6-2-1.6-2.3-2.5c-3.1-0.8,1.8,1.9-1.9,1.5
							c-0.6-0.2-1.2-0.4-1.8-0.5c-0.6-0.1-1.1-0.1-1.7-0.1c-1.2,0-2.4,0.2-4,0.5c-1.8-0.6,0.4-0.8-0.2-1.2L137,43
							c-0.4-0.1-0.2-0.4-0.2-0.5c-1.4,0.3-0.2,1.3-2.3,1.5c-0.3,0.7-1.3,0.1-2.7-0.3c-1.3-0.4-2.9-0.9-4.2,0c-0.7-0.3,0.3-0.8,0-1.3
							c-3.5,1.3-3,1-5.7,2.7c0,0-0.6-0.1-1.3-0.3c-0.6-0.1-1.3-0.2-1.3-0.2c1.9,0.6-0.2,2.2-1.9,3.4c0.7,0.3,1.3,0.7,1.7,0.8
							c0,0-0.7,0.3-1.4,0.6c-0.7,0.3-1.4,0.7-1.4,0.7c-0.4-0.1-0.2-0.6,0.2-1.3c-0.2,0.2-0.4,0.3-0.5,0.4c-1.2-0.2-0.8-1.1-0.2-1.9
							c0.4,0.2,0.9,0.3,1.3,0.5c0.6-0.9,1.2-1.9,0.9-2.6c-0.2,0.2-0.6,0.4-1,0.5c0.2-0.2,0.3-0.5,0.1-0.6c-0.1-0.1-0.4,0.2-0.9,0.7
							l-1-1.2l-0.1,0.6c0,0-1.1,0-2.2,0c-0.6,0-1.1,0.1-1.5,0.1c-0.4,0-0.7,0-0.7,0c-0.6,0.6-1.2,1.1-1.8,1.7
							c-0.6,0.6-1.2,1.3-1.8,1.9c-0.6,0.6-1.3,1.2-2.1,1.9c-0.8,0.6-1.6,1.2-2.6,1.8c0.6-1.4-0.4-1.7-0.9-2.8
							c0.9,0.3,1.7-0.1,2.6-0.8c0.9-0.7,1.9-1.4,3.2-1.7c-1.3,0.3-1.2-0.4-1-0.7c0,0-0.2,0.2-0.6,0.4c-0.4,0.2-0.8,0.6-1.3,0.9
							c-0.9,0.7-1.9,1.4-1.9,1.4c-0.3-1-1.2-0.4-2.4-0.2c0.8,0.7,0.2,1.4-0.8,2c-1,0.6-2.3,1.3-3,2c-0.4-0.5-0.3-1.4,1.7-2.2
							c-2.9-0.2-1.7,3.5-4.4,3.5c0.5-0.3,0.8-0.3,0.8-0.7c-0.4,0.6-1.3,1.1-2.1,1.4c-0.8,0.3-1.4,0.4-1.3,0l0.4-0.3
							c-0.8,0.4-1.8,1-2.8,1.7c-1,0.7-2,1.5-2.9,2.3c-1.7,1.6-2.9,3.2-2.6,4c-0.2-0.1-1-1.9-1-2.3c0,0-0.1,0.5-0.2,1.3
							c-0.1,0.8-0.2,1.9-0.4,2.9c-0.1,1-0.2,2.1-0.2,2.9c0,0.8-0.1,1.3-0.1,1.3c-0.6-1.4-4.6-2.4-3-5.1c-0.8,0.5-1.7,1-2.6,2.7
							c0.6-0.3,2.5,0.5,2,1.1c-2.6,0.4-1.7,0.4-4.5,1.5c0.8-0.5,1.9,1.8,0.9,2.8c-0.1-0.4-1.8-1.4-1.6-1.9c0,0-0.1,1-0.3,2
							c-0.1,1-0.2,2-0.2,2c0.2-0.9-1.4-1.3-2.4-1.1c0.3,0-0.2,0.6-0.8,1.3c-0.6,0.7-1.2,1.6-1.4,2l1.3-0.9c-2.6,3,0.4,4.9-1.6,8
							c-0.2-0.6-1.9-2.5-3.1-0.9c0.3,0.7,1,2.2,1.6,4c0.6,1.8,1.1,3.7,0.9,5.3L66,92c0,0-0.1,0.6-0.2,1.3c-0.1,0.6-0.1,1.3-0.1,1.3
							c-0.6-1-1.2-2.9-1.7-4.9c-0.5-2-0.8-4.1-0.9-5.6c-1.1,1-0.9,0-1.8,2c-0.9,0.4-0.3-1.5,0-2.1c0,0-0.7,1.1-1.4,2.2
							c-0.4,0.6-0.7,1.1-0.9,1.6c-0.2,0.4-0.4,0.7-0.4,0.7c0.7,0.2,0.6,1.2,0.4,2.2c-0.1,1-0.2,2.1,0.4,2.2c0,0,0-0.4,0.1-0.9
							c0.1-0.5,0.2-1.2,0.3-1.9c0.3-1.4,0.5-2.8,0.5-2.8c0.7,0.2,1.2,1.3,1.3,2.8c0.1,1.4,0,3.2-0.7,4.8c-0.8,0.6-2-1.5-2.4-1.6
							c0.2,0.6-0.3,3.5-0.7,3.7l-0.2-1.7c-0.6,0.9-0.4,1.8-0.4,2.7c0.1,0.9,0.1,1.9-0.9,2.9c-0.3,0.8-2.3,2-1.6,2.3
							c1.8-1,6.4,0,7.4,1.1c-0.1,0.1-0.7,1-1.3,2c-0.7,1-1.4,2-1.8,2.4c-1.4,1.1-2.5-2.5-3.7-1.6c0.4,0.1,0.7,0.9,0.8,1.3
							c-0.5,0.8-1.1-0.5-1.2,1.3c1.3,0.5-0.6,3.8,1,1c0.2,1.9-0.6,1.9-0.7,4c0.9-0.6,2.8,2.1,3.1,3.9c-0.3-0.1-0.8,0.3-1,0.4
							c-0.1,0.9-0.1,1.7-0.2,2.5c-0.1,0.8-0.1,1.4-0.2,2.1c-0.1,0.7-0.1,1.4-0.2,2.1c0,0.7,0,1.5,0.1,2.3c-0.3,0.3-0.6,2-1.2,1.4
							c0.3,0.5,0.8,0.9,1,1.9c-0.9,2.2-0.5-2.3-1.7-0.6c0.8,0,1.4,2.6,2.2,4c0.6-0.3,0.4-1.2,0.2-2.2c-0.3-1-0.8-2-1.1-2.8
							c0.8-0.1,1.8,0.5,2.7,1.4c0.4,0.5,0.8,1.1,1.3,1.7c0.4,0.7,0.8,1.4,1.2,2.2c0.9,2.6-0.8,1.4-0.5,1.8c0.2,1.3,0.6,2.1,1,2.8
							c0.4,0.6,0.9,1,1.3,1.4c0.9,0.8,1.6,1.4,1.7,3.6c-0.5,1.9-2,0.8-2.6,1.4c-0.6-1-0.7-1.9-0.7-2.7c0-0.8,0.1-1.5-0.2-2.3l0,2
							c-0.5-0.6-1.2-2-1.1-2.9c-0.1,0.4-0.1,1.2,0.1,2.1c0.1,0.5,0.2,1,0.4,1.6c0.2,0.6,0.4,1.1,0.6,1.8c0.2,0.6,0.4,1.2,0.6,1.9
							c0.2,0.6,0.5,1.3,0.7,1.9c0.4,1.2,0.8,2.4,1,3.4c0.6,0.5,1.5,1.5,1.6,0.8l-0.7-1.1c0.3-1.4,2.1,1.7,1.8,0
							c0.6,0.6,1.4,1.2,2.1,2c0.3,0.4,0.6,0.8,0.9,1.2c0.3,0.4,0.5,0.9,0.7,1.5l-0.8,1c0.3-0.2-0.1-1.7-0.8-2.1
							c0.5,0.3,0.6,1.3,0.8,2.2c0.2,1,0.6,1.8,1.6,1.9c0,0,0-0.5-0.1-0.9c-0.1-0.5-0.1-0.9-0.1-0.9c0.7,0.6,1.6,1.1,2.4,1.7
							c0.8,0.6,1.6,1.3,2,2.3c0.5-1.4-0.4-0.3,0-2.3c-0.8,2-2.7-4.4-3.2-1.7c0.3-1.1,0.2-1.7-0.1-2.4c-0.2-0.7-0.5-1.4-0.3-2.5
							c-0.3,0.2-0.4,1-1-0.6c-0.1,0-0.4-0.1-0.5-0.2c0-0.1,0-0.1,0-0.1c0,0,0,0.1,0,0.1c-0.1,0-0.1,0,0,0c0,0.4,0,0.8-0.2,1
							c-0.6-0.2-1.2-0.9-1.8-1.6c-0.5-0.8-1-1.5-1.4-1.9c-0.2-1,0.6,0.2,0.8-0.5c0,0-0.3-0.2-0.6-0.5c-0.3-0.3-0.6-0.5-0.6-0.5
							c0.8-0.5,0.4-3.1,1.8-1l-0.7-2c0-1.3-0.3-3-1-3.9c-0.1-1-1.6-2.2-0.7-1.5c0,0-0.4-0.8-0.7-1.5c-0.3-0.8-0.6-1.6-0.6-1.6
							l0.2-0.1c-0.4-1.6-1-3.2-1.5-4.9c-0.4-1.7-0.7-3.6,0-5.5c-0.2-0.5-0.3-1.1-0.4-1.8c-0.1-0.7-0.1-1.4,0-2.3l0.8-0.4
							c-0.2-0.7,0.1-1.8,0.2-2.7c0.2-1,0.2-1.8-0.1-2.1c0.6-0.4,0.9-0.9,1.1-1.7c0.2-0.7,0.3-1.6,0.4-2.5c0.1-0.9,0.1-1.8,0.1-2.7
							c0.1-0.9,0.2-1.6,0.4-2.2l-1-0.3c0.2-0.8,0.3-1.7,0.4-2.6c0.1-0.9,0.1-1.9,0.2-2.9l-0.9-0.1c-0.1-1,0.4-2.1,1-3.3
							c0.3-0.6,0.7-1.2,1-1.9c0.3-0.6,0.7-1.3,0.9-2c0.2,0.3-0.1,1-0.5,1.4c0.8-0.6,1.3-1.4,1.6-2.2c0.3-0.8,0.5-1.7,0.7-2.7
							c0.2-0.9,0.4-1.8,0.7-2.6c0.3-0.8,0.7-1.6,1.5-2.1c0.1-0.8,0.5-1.3,1-1.7c0,0.1-0.1,0.1-0.1,0.2c0-0.1,0.1-0.2,0.2-0.3
							c0.3-0.2,0.6-0.4,1-0.7c-0.4,0.2-0.7,0.3-0.9,0.5c0.3-0.5,0.7-1.4,1-2.3l1,0.2c0-0.1,0.1-0.1,0.1-0.2c0.8-0.5,0-0.9-0.9-0.9
							c0.1-0.5,0.2-0.9,0.2-1.3c1.7,0.3,1-2.3,2.9-2.1c-0.1-0.5,0.5-1.5,1-2.5c0.5-1,1-2.1,0.5-2.9c0.2,0.1,0.4,0,0.1,0.4
							c0.8-0.7,1.7-1.3,2-2.3l1.2,0.5c0,0,0.1-0.7,0.2-1.4c0.1-0.7,0.2-1.4,0.2-1.4c1.5-0.4,2.2-0.5,1.9,1.1
							c0.7-1.7,1.1-2.2,1.5-2.7c0.4-0.5,0.7-1,1.3-2.4l0.4,0.7c0.8-0.6,1.4-2.5,2.3-2.3c1.4-0.1,3.6-1.6,6.4-3.3
							c2.8-1.6,6-3.3,8.9-3.7c-1-0.8-0.3-0.9,0.6-0.9c0.9,0,2,0,1.7-0.9c0.5,0.4,1.3,0.4,0.7,1.2c1.2-0.8,2.3-0.9,3.3-1.1
							c0.9-0.2,1.7-0.5,2.5-1.5c0.5,0.4-0.4,0.9,0,1.2c0.2-0.2,0.7-0.7,1.1-0.5c0.4,0.2-0.3,0.6-0.6,0.9c0.7-0.2,1.2-0.5,1.6-0.8
							c0.4-0.3,0.6-0.6,0.8-1c0.3-0.7,0.2-1.6,0.2-2.4c0.8,0.2,1.4,0.2,1.9,0c0.5-0.2,0.9-0.5,1.4-1.1c0.6,0.4,1.6,0.8-0.2,1.3
							c0.5,0,2.1-0.2,3.6-0.3c1.5-0.2,2.8-0.5,2.8-1.1c0.4,0.3,1.5,0,1.7-0.2c2.4-0.1,2.6,0.1,4.9-0.1l-0.6-0.2
							c0.9-1.6,1.9-0.3,3.8-0.5l-0.1,0.2c2.1,0.6,2.6,0.6,3.1,0.5c0.5-0.1,0.9-0.2,3,0.7l-0.1-1c0.3-1,1.2-0.6,2.4,0
							c1.1,0.7,2.4,1.5,3.7,1.4l-0.8-0.7c0.7-0.2,1.5,0.7,2.3,1.7c0.7,1,1.4,2.1,2,2.4c0.2,0.3-0.5,0.1-0.9,0.2
							c2.9,2.1,0.7-1.1,3.3-0.7c0.3,0.8-1.1,1.5,0.5,2.1c0.3,0.4,1.6,0.3,3.2,0.3c1.5,0.1,3.2,0.3,4,1.4c-0.3-0.7-0.5-1.4,0.7-1.2
							c1.8,0.6,3.6,3.9,5.8,3.3c0.1,0.2,0.1,0.4,0.1,0.5c0.7,0.2,1.8,0.6,2.8,0.9c1,0.4,2,0.7,2.7,0.5c-0.2,0.9,0.2,1.5,0.9,2.1
							c0.7,0.6,1.7,1,2.6,1.5c1.9,0.9,3.6,1.8,2.6,2.9c0,0,0.9,0.7,1.7,1.4c0.8,0.7,1.6,1.4,1.6,1.4l-0.3,0.1c0.9,1,1.6,1.6,2.3,2
							c0.7,0.3,1.3,0.4,1.9,0.6c0.3,0.6-0.3,0.5-0.4,0.5c1.1,1.7,1.7,2.6,2.5,3.4c0.7,0.7,1.7,1.2,3.3,2.2l-0.6,0.9
							c0.5,0.2,1.1,1.6,1.8,3.4c0.2,0.4,0.4,0.9,0.6,1.3c0.2,0.5,0.4,0.9,0.7,1.4c0.5,0.9,1.1,1.8,1.8,2.5c-0.1,0-0.3,0-0.6-0.2
							c1.6,1.7,2.1,4.4,2.6,6.7c0.5,2.3,1,4.1,3,4.3c0,0,0.5,0.6,0.9,1.3c0.4,0.7,0.8,1.3,0.8,1.3c-0.8-3.8,1.7,0.1,1.8-1.6
							c0.3,0.7,0.3,1.8,0.2,2.4c-0.2,0.6-0.5,0.9-0.8,0l0.1-0.3c-1.9-0.2,0.5,4.9-0.8,5c0.8,3.7,0.9,7.4,0.9,11.1
							c-0.1,3.7-0.6,7.2-0.9,10.7c0,0,0.4-0.2,0.8-0.3c0.4-0.2,0.8-0.3,0.8-0.3s0,0.2,0,0.4c0,0.2-0.1,0.5-0.1,0.8
							c-0.1,0.6-0.2,1.2-0.2,1.2c-0.4,0.6-1.2,0.7-1-1c-0.9,0.8,0.3,3,0.6,3.1c-1.2,3.3-1.4-1.6-1.7-0.6l-0.1,1.4l0.2-0.3
							c0.4,1.2,1.1,1.5,0.5,3.5c-0.6,1.2-1,0.5-1.2,1c-0.1,0-0.2,0.1-0.2,0.8c0,0,0,0.2-0.1,0.5c-0.1,0.3-0.2,0.6-0.3,1
							c-0.2,0.7-0.5,1.5-0.5,1.5l1.4-0.9c0.2,1.5-0.9,2.8,0.8,1.8c-1.3,0.7-2.3,3.4-3.4,6c-0.5,1.3-1.1,2.5-1.5,3.6
							c-0.5,1-0.9,1.7-1.2,1.9c0,0.5-0.1,1-0.2,1.5c-0.1,0.5-0.3,0.9-0.5,1.4c-0.4,0.9-1,1.9-1.7,2.8c0.5-0.4,1.8,0,0.6,1.7
							c-0.9-1.1-1.6-0.4-2.5,0.5c-0.9,0.9-1.8,2.1-3.1,2.1c1-0.2,0.1,1-0.6,2.1c-0.7,1.1-1.4,2.2,0.1,1.9c-1.3,1.2-0.8-0.6-2.2,0
							c-0.4,0.9-1.1,1.8-1.9,2.6c-0.4,0.4-0.8,0.8-1.2,1.2c-0.4,0.4-0.9,0.7-1.4,1.1c-0.9,0.7-1.9,1.4-2.9,2.1c-1,0.7-2,1.4-2.9,2.3
							c0.2,0.3,1.1,0.2,0.6,1.3c0,0-0.2,0-0.5,0c-0.3,0-0.7,0-1.1,0.1c-0.8,0-1.6,0-1.6,0c-0.7,0.7,0.4,2.2-1.8,2.2
							c0.4,0.1,0.9,0.3,0.4,0.7c-4.6,2-8.8,4.5-13.4,6.5c-4.6,2-9.6,3.3-14.7,2.5c1.4,0.4,0.6,0.7-0.4,0.9c0.7,0,0.1,0.9,0.3,1.3
							c0,0-1.1-0.2-2.2-0.4c-0.5-0.1-1.1-0.2-1.5-0.3c-0.4-0.1-0.7-0.1-0.7-0.1c-0.3,0.7-1.4,0.8-2.5,0.9c-1.1,0.1-2.1,0.1-2.3,0.7
							l1.3-0.3c-0.9,0.8-0.2,1.6,0.7,2.4c0.9,0.8,2,1.7,1.9,2.6c0.5-0.5,1.1-0.6,1.8-0.5c0.7,0,1.4,0.2,2.3,0.4c1.6,0.4,3.5,0.5,5-1
							c0.8,0.2-0.5,0.7,0,1.1c0.7-0.9,1.7-1.4,3.7-1.5l-0.2,0.2c1.4-0.3,2.5-0.7,3.6-0.9c1.1-0.2,2.1-0.5,3.1-0.7
							c1-0.2,2.1-0.4,3.3-0.7c1.2-0.3,2.5-0.6,4-1.2l-0.8-0.7c1.3-0.4,1.7-0.3,2.4-0.3c0.8-1.9-3.5,1.5-2.9-0.5
							c0.6,0.3,1.4,0.1,2.4-0.2c1-0.3,2-0.9,3-1.4c1.1-0.5,2-1.1,2.9-1.4c0.9-0.3,1.7-0.4,2.2-0.1c1.8-1.1-1.1-0.6,0.7-1.7l0.8,0.2
							l0-0.9c1.2-0.6,2.2-0.5,2.5-0.1c-0.3,0.1-0.7,0.7-1,0.9c0.9-0.2,1.9-1,2.8-1.8c0.8-0.8,1.5-1.5,1.8-1.6c0,0-0.5,0.2-0.9,0.5
							c-0.5,0.2-0.9,0.5-0.9,0.5c1.1-1,2.2-2,3.4-3c1.1-1,2.4-2,3.5-3.2c0.6-0.6,1.1-1.1,1.7-1.7c0.5-0.6,1-1.2,1.5-1.8
							c1-1.2,1.8-2.4,2.5-3.6l-0.6,0c1.1-1.8,1.6-2.5,2.3-3c0.7-0.6,1.4-1.2,2.6-3.2l0,0.2c0.2-1,0.6-2.1,1.4-3.2
							c-0.2,1.3,2-1.3,1.7,0.3c0.8-2.2,0.9-2.8,0.9-3.2c-0.1-0.5-0.3-0.8-0.3-2.5l1-0.3c-0.2-1.2-0.4-1.4,0.4-3.5
							c-0.2,2,1.6-0.8,1.5,1.4c0.9-0.9,1.4-1.9,1.7-2.7c0.3-0.9,0.4-1.7,0.6-2.5c0.3-1.5,0.4-2.6,1.9-3.3c-0.6-1.4-1.2-0.5-1.7,0.6
							c-0.4,1.1-0.8,2.3-0.8,1.6c-0.5,0.4-0.7-0.2-0.7-1c0-0.8,0.2-1.9,0.5-2.5c0.3-0.7,1.1-1.1,2-1.8c0.4-0.4,0.9-0.8,1.3-1.4
							c0.4-0.6,0.8-1.3,1-2.3c-0.1,0.4,0,0.4,0,0.8c0.4-0.6,0.4-1.4,0.4-2.2c0-0.8,0.1-1.6,0.7-2.4c-1-1.2,0.5-2.3-1-2.8l-0.3,3.5
							c0-1-0.4-2.1-0.6-3.2c-0.2-1.2-0.3-2.4,0.3-4c0.3,0.3,0.6,1.3,0.7,2c0.6-0.9,0-1.9,0.5-2.8c0.8,0.2,0.8,1.3,0.6,2.6
							c-0.1,0.7-0.1,1.4-0.2,2.1c0,0.7,0,1.4,0.2,2c0.4-0.5,0.3-1.5,0.3-2.3c-0.1-0.8,0-1.3,0.8-0.6c-1-0.9-0.8-1.9-0.5-2.9
							c0.2-1.1,0.5-2.3-0.2-3.7l0.9,0.2c-0.1-0.4-0.5-1.3-0.5-2.1l1.2,1.5c-1-2.2,1.1-4.2,0.4-6.3c0.1,2.2-0.2,2.4-0.6,2.4
							c-0.4-0.1-0.8-0.4-1.2,0.5c-1.4-5.2,2.5-3.1,1.6-9.1c0.2,0.8-0.3,3.1-0.9,1.9c0.1-1.2,0.3-2.7,0.7-3.5
							c-0.7-3.9-0.9,0.7-1.7-0.9c1-1.5-0.8-1.9-1.4-3.5l0.9-0.2c-0.1-2.3-0.7-2.5-1.2-2.6c-0.5-0.1-1-0.2-1.1-2.2l1.7,1.3
							c0,0-0.2-0.5-0.4-1c-0.2-0.5-0.4-1-0.4-1l1.2,0.1c-0.7-1-1.1-1.7-1.3-2.4c-0.2-0.7-0.3-1.5-0.5-2.6c-0.5,0.7-1.8,0.3-2.4-1.6
							c0.1-1.5,1.1,0.4,0-2.2c0.8,0.4,1.8,0.8,1.3,2.2c0.3,0,0.8,0.4,1.1,0.4c0.2-1.6-1.2-3.5-1.5-4.5c0.1,0.4,0.2,0.8,0.2,1.1
							c0,0-0.7-0.8-1.4-1.7c-0.7-0.8-1.5-1.6-1.5-1.6c0.1-0.7,0.5-0.4,1,0c-0.5-0.7-1.1-1.1-1.7-2.1c0.8-0.1,1.6-0.5,2.6,1
							c0,0-0.2-0.2-0.4-0.5c-0.2-0.3-0.5-0.7-0.9-1.1c-0.6-0.8-1.3-1.6-1.3-1.6c0.2-0.4-0.1-2.2,0.4-1.9c-0.4-1.1-1.4-2.1-2.4-3.1
							c-1.1-1-2.2-2.1-2.8-3.5c-0.2,0-0.5-0.2-1-0.6c-0.4-0.6-0.7-1.2-1-1.8c-0.3-0.6-0.7-1.2-1-1.7c-0.4-0.6-0.8-1.1-1.3-1.7
							c-0.5-0.5-1.1-1-1.9-1.4c0,0,0-0.6-0.1-1.2c0-0.6-0.1-1.2-0.1-1.2c-2-1.6,0.4,3-2.9,0.3c-2.4-1.8,0.1-1.6-0.4-2.7
							c-0.8-0.3-1.9-0.6-2.9-1.2c-1.1-0.6-2.1-1.3-2.8-2.7C184.3,60.8,184.7,61.5,185.4,61.9z M158.5,46.9c0.3,0,0.8-0.1,1.3,0
							c0.4,0.1,0.8,0.2,0.9,0.5C159.7,48.2,159.4,47.5,158.5,46.9z M112.9,47.2c0.3-0.4,1-0.4,1.8-0.2
							C114.3,47.2,113.6,47.3,112.9,47.2z M65.9,144.7C65.9,144.6,65.9,144.6,65.9,144.7C65.9,143.4,65.9,143.8,65.9,144.7z
							 M66.4,147.1c0.2,0.2,0.3,0.1,0.4,0c-0.3-0.1-0.5-0.6-0.7-1.2C66,146.2,65.9,146.5,66.4,147.1z M201.4,138.8l0.4-0.4
							C201.8,139.5,201.6,139.1,201.4,138.8z"/>
						<path id="XMLID_326_" class="st24" d="M117.7,44.8c0.2,0.1,0.3,0.3,0.3,0.5C118.3,45.1,118.2,44.9,117.7,44.8z"/>
						<path id="XMLID_325_" class="st24" d="M198.6,76.1C198.6,76.1,198.6,76.1,198.6,76.1c0.1,0.1,0.2,0.1,0.2,0.1L198.6,76.1z"/>
						<path id="XMLID_324_" class="st24" d="M54.7,108.1c0.2-0.5,0.5-0.8,0.7-1C55.1,107,54.9,107.3,54.7,108.1z"/>
						<path id="XMLID_323_" class="st24" d="M73.6,158c0,0-0.3-0.3-0.5-0.6c-0.2-0.3-0.5-0.6-0.5-0.6c0.4,0.6,0.4,1,0.4,1.4
							C73.2,158,73.3,157.6,73.6,158z"/>
						<path id="XMLID_322_" class="st24" d="M77.3,172.7c0.3,0.1,0.4,0.4,0.6,0.5l0.3-0.4C77.5,172.1,76.7,171.8,77.3,172.7z"/>
						<path id="XMLID_321_" class="st24" d="M71.7,160.9c-0.6,0.5,0.1,1.3,0.9,2.1c0-0.1-0.1-0.1-0.1-0.2
							C73.6,162.5,72.6,161.7,71.7,160.9z"/>
						<path id="XMLID_320_" class="st24" d="M72.8,163.2c0.2,0.3,0.5,0.5,0.6,0.8C73.9,163.9,73.2,163.7,72.8,163.2z"/>
						<path id="XMLID_319_" class="st24" d="M68.1,149.8c0,0.6,1.1-0.1,0.9,0.3C70.1,150.2,66.4,147.4,68.1,149.8z"/>
						<polygon id="XMLID_318_" class="st24" points="69.9,163.2 70.5,162.3 69.5,162.1 						"/>
						<path id="XMLID_317_" class="st24" d="M66,154.8l0.6,1.8c0.1-0.1,0.3,0.1,0.5,0.3C66.6,155.8,66.2,154.6,66,154.8z"/>
						<path id="XMLID_316_" class="st24" d="M67.1,156.9c0.3,0.5,0.6,1,0.9,1.2C67.8,157.8,67.4,157.2,67.1,156.9z"/>
						<path id="XMLID_315_" class="st24" d="M68.3,161.2l-0.1-0.6l-0.6-1.2c0,0,0.2,0.4,0.3,0.9C68.1,160.7,68.3,161.2,68.3,161.2z"
							/>
						<path id="XMLID_314_" class="st24" d="M59.7,135.9l-0.6-1.9c-0.4-0.1-0.5,0.4-0.2,1.2C59.2,135.6,59.5,136.3,59.7,135.9z"/>
						<path id="XMLID_313_" class="st24" d="M58.5,142.6c0-0.6,0.3-0.7,0.5-1.1l-1.2,0.3L58.5,142.6z"/>
						<path id="XMLID_312_" class="st24" d="M56.8,136.7c-0.4-0.1-1.5-2.9-1-0.2C56.2,136.7,56.9,138.7,56.8,136.7z"/>
						<polygon id="XMLID_311_" class="st24" points="58.7,105.6 58.6,106.1 60.6,106.4 						"/>
						<path id="XMLID_310_" class="st24" d="M65.1,77.8c-1.8,1.9,0.7,1.2-1,2.8c0.1,0.8,1.4-1.3,1.5-0.6
							C65.9,78.4,66.6,77.9,65.1,77.8z"/>
						<path id="XMLID_309_" class="st24" d="M65.5,80c-0.1,0.3-0.1,0.5-0.2,0.8C65.5,80.4,65.5,80.2,65.5,80z"/>
						<path id="XMLID_308_" class="st24" d="M136.4,191.6c0,0-0.4-0.1-0.7-0.2c-0.4-0.1-0.7-0.2-0.7-0.2l1,0.7L136.4,191.6z"/>
						<path id="XMLID_307_" class="st24" d="M133.6,193.3l-0.4-1.3l-0.9,1.2C132.7,193.1,133.4,193,133.6,193.3z"/>
						<path id="XMLID_306_" class="st24" d="M154.9,43l-0.2,0.3c0.2,0.4,0.5,0.5,1.3,0.8L154.9,43z"/>
						<polygon id="XMLID_305_" class="st24" points="175.4,53.2 175.1,53 175.1,54.3 						"/>
						<path id="XMLID_304_" class="st24" d="M191.4,64.2c-0.5-0.6-1.4-1.1-1.9-1.7C190.9,63.5,190.5,65.4,191.4,64.2z"/>
					</g>
				</g>
			</g>
		</g>
	</g>
	<g id="XMLID_64_" class="st22">
		<g id="XMLID_276_">
			<g id="XMLID_280_">
				<g id="XMLID_281_">
					<g id="XMLID_282_">
						<path id="XMLID_557_" class="st25" d="M76.2,169.8c-0.4-0.1-0.2,0.4-0.3,0.4C76.5,170.1,76.2,169.7,76.2,169.8z"/>
						<polygon id="XMLID_556_" class="st25" points="82.2,169.3 82,169.5 83,169.2 						"/>
						<path id="XMLID_555_" class="st25" d="M87.6,170.6c-0.3-0.8-2-0.4-2.9-0.9l-0.1-0.2l-0.6,0.4
							C85.2,170.2,86.9,170.2,87.6,170.6z"/>
						<path id="XMLID_554_" class="st25" d="M89.9,173.1c-0.1-0.3,0.7,0-0.6-0.3c0.1,0.1,0.1,0.1,0.1,0.1
							C89.5,172.9,89.6,172.9,89.9,173.1z"/>
						<path id="XMLID_553_" class="st25" d="M89.4,172.9C88.8,172.7,89.6,173.2,89.4,172.9L89.4,172.9z"/>
						<path id="XMLID_552_" class="st25" d="M91.8,173.7l-0.8-0.1c0.1,0.2,0.7,0.5,0.4,0.5C92.2,174.4,92.1,174.2,91.8,173.7z"/>
						<path id="XMLID_551_" class="st25" d="M92.7,173.6l-0.4-0.1C92.3,173.6,92.4,173.6,92.7,173.6z"/>
						<path id="XMLID_550_" class="st25" d="M91.5,173.3l0.8,0.2c0-0.2,0-0.4-0.4-0.1C92.1,173.2,91.8,173.3,91.5,173.3z"/>
						<path id="XMLID_549_" class="st25" d="M91.1,173c-0.3-0.3-0.8-0.6,0-0.6C89.7,172,89.7,172.6,91.1,173z"/>
						<path id="XMLID_548_" class="st25" d="M88.1,170c0,0-0.1-0.1-0.2-0.2c-0.1-0.1-0.3-0.2-0.3-0.2l-0.6,0.1
							c0.1,0,0.4,0.1,0.6,0.2C87.9,170,88.1,170.1,88.1,170z"/>
						<path id="XMLID_547_" class="st25" d="M95.7,176.3c0.1-0.1,0-0.5,0.1-0.7l-0.6-0.1C95.4,175.7,95.8,176.1,95.7,176.3z"/>
						<path id="XMLID_546_" class="st25" d="M95.8,175.6l0.9,0.2C96,175.4,95.8,175.4,95.8,175.6z"/>
						<polygon id="XMLID_545_" class="st25" points="93.2,172.9 91.7,172.8 93.4,173 						"/>
						<polygon id="XMLID_544_" class="st25" points="98.3,178.1 97.7,178.1 98.7,178.1 						"/>
						<path id="XMLID_543_" class="st25" d="M100,179.3c-0.4,0,0,0.7-0.4,0.6c0.4,0.3,1,0.5,1.4,0.6
							C100.6,180.2,100.3,179.9,100,179.3z"/>
						<path id="XMLID_542_" class="st25" d="M101.8,180.7c-0.2-0.1-0.5-0.2-0.8-0.3C101.3,180.6,101.5,180.7,101.8,180.7z"/>
						<path id="XMLID_541_" class="st25" d="M97.8,176.7c0,0.1,0,0.4,0.3,0.7l0-0.5C98,176.8,97.9,176.7,97.8,176.7z"/>
						<path id="XMLID_540_" class="st25" d="M98.1,176.9L98.1,176.9c0.3,0.2,0.5,0.4,0.6,0.5C98.5,177.3,98.4,177.1,98.1,176.9z"/>
						<path id="XMLID_539_" class="st25" d="M97.7,176.6C97.8,176.6,97.8,176.7,97.7,176.6C97.8,176.6,97.8,176.6,97.7,176.6z"/>
						<path id="XMLID_538_" class="st25" d="M95,174.3c0.5,0.1,1.6,0.4,0.9-0.5C95.4,173.9,95.8,174.4,95,174.3z"/>
						<path id="XMLID_537_" class="st25" d="M97.7,175.9c0,0-0.7-0.6-0.7-0.6c0,0.1,0,0.3-0.3,0.3C96.7,175.7,97.7,175.9,97.7,175.9
							z"/>
						<polygon id="XMLID_536_" class="st25" points="98.1,176.1 97.7,175.9 97.9,176.2 						"/>
						<path id="XMLID_535_" class="st25" d="M101,179.4c0.4,0.1,0.7,0.4,1.1,0.7c-0.3-0.4-0.7-0.8-1.1-1.1
							C100.9,179,100.6,179,101,179.4z"/>
						<path id="XMLID_534_" class="st25" d="M99.6,178.1C99.7,178.1,99.7,178.1,99.6,178.1C99.7,178.1,99.7,178,99.6,178.1z"/>
						<polygon id="XMLID_533_" class="st25" points="105.3,183.5 105.3,183.4 105.3,183.4 						"/>
						<path id="XMLID_532_" class="st25" d="M101,178.8c-0.2-0.3-0.5-0.4-0.7-0.4c0.2,0.2,0.5,0.3,0.7,0.6
							C101.1,178.9,101.1,178.9,101,178.8z"/>
						<path id="XMLID_531_" class="st25" d="M102.9,181.5c-0.1-0.2-0.2-0.4-0.3-0.6C102.7,181,102.8,181.5,102.9,181.5z"/>
						<path id="XMLID_530_" class="st25" d="M99.7,178.3L99.7,178.3C99.7,178.4,99.7,178.4,99.7,178.3z"/>
						<path id="XMLID_529_" class="st25" d="M99.7,178.3c0.2,0.1,0.4,0.1,0.6,0.1c-0.2-0.1-0.4-0.2-0.6-0.3
							C99.7,178.2,99.7,178.2,99.7,178.3z"/>
						<path id="XMLID_528_" class="st25" d="M108.4,182.9c-0.4,0.2-1.2-0.5-1.6-1.4c-0.8-0.5-1.4,0.8-1.5,1.8c0.1-0.1,0.3-0.2,1,0.4
							c0-0.4-0.9-1.8-0.1-1.5c1,0.8,0.5,0.9,0.7,1.4c0.1-0.7,1.5,0.8,1.9,0.2l-0.9-0.7C108.1,183,108.5,183.2,108.4,182.9z"/>
						<path id="XMLID_527_" class="st25" d="M104.2,182.1l-0.3-0.2c0.2,0.4,0.3,0.7,0.4,1.3c0.5,0.3,0.7,0.3,0.9,0.3l-1.2-1.4
							L104.2,182.1z"/>
						<path id="XMLID_526_" class="st25" d="M102.8,180.7c0.5-0.1,1.2,0.4,1.2-0.3c-0.8-0.8-0.8-0.3-1.4-0.6
							C104,180.9,102.1,179.6,102.8,180.7c-0.3-0.2-0.5-0.4-0.7-0.6c0.2,0.2,0.4,0.5,0.5,0.7c0,0,0,0,0,0l0,0l0,0c0-0.1,0-0.1,0,0
							c0,0,0,0,0,0C102.7,180.7,102.8,180.7,102.8,180.7c0.3,0.4,0,0.1-0.2,0.1c0,0,0,0-0.1,0l0,0c0,0,1.3,1.1,1.3,1.1
							C103.7,181.6,103.5,181.2,102.8,180.7z"/>
						<path id="XMLID_525_" class="st25" d="M97.2,173.5c0,0.1,0,0.1,0,0.1C97.3,173.7,97.3,173.7,97.2,173.5z"/>
						<path id="XMLID_524_" class="st25" d="M97.7,174.1c-0.1,0-0.3,0.1-0.7-0.2c-0.2-0.3,0.1-0.2,0.2-0.3c-0.3,0-0.9-0.2-0.4,0.4
							l0.1,0c0.5,0.5,1,1.4,0.9,1.4C97.9,175,97.9,174.7,97.7,174.1z"/>
						<path id="XMLID_523_" class="st25" d="M100.6,177.3c0,0,0.1,0,0.2,0.1c0.1,0.1,0.3,0.2,0.4,0.3c0.3,0.2,0.6,0.4,0.6,0.4
							l-0.3-0.8l-0.1,0.2C100.8,176.8,100.8,177.2,100.6,177.3z"/>
						<path id="XMLID_522_" class="st25" d="M105.3,183.7l-0.5,0.2c0,0,1,0.2,1,0.2L105.3,183.7z"/>
						<polygon id="XMLID_521_" class="st25" points="106.4,185.2 106.1,185.4 106.6,185.6 						"/>
						<path id="XMLID_520_" class="st25" d="M54,245l-0.5-0.1C53.8,244.9,53.9,245,54,245z"/>
						<path id="XMLID_519_" class="st25" d="M57,246.6l0.2-0.1C57,246.5,56.9,246.6,57,246.6z"/>
						<path id="XMLID_518_" class="st25" d="M108.3,228c-0.6,0.3-1.5,0.6-1,0.8l0.5,0.1C107.9,228.5,108.1,228.2,108.3,228z"/>
						<path id="XMLID_517_" class="st25" d="M83.9,247.9c0.1,0,0.1,0.1,0.2,0.1c0.1-0.2,0.2-0.4,0.3-0.5
							C84.3,247.7,84.1,247.8,83.9,247.9z"/>
						<path id="XMLID_516_" class="st25" d="M83.8,249.8l-0.9-0.1C83.1,249.7,83.4,249.7,83.8,249.8z"/>
						<path id="XMLID_515_" class="st25" d="M40.1,232.6c0,0-0.2-0.1-0.3-0.1c-0.2-0.1-0.3-0.1-0.3-0.1
							C39.9,233.1,39.8,232.6,40.1,232.6z"/>
						<path id="XMLID_514_" class="st25" d="M113.8,202.5c-0.1,0.5-0.1,1-0.1,1.3C113.9,203.2,114.1,202.6,113.8,202.5z"/>
						<path id="XMLID_513_" class="st25" d="M57.4,241.6c-0.3-0.1-0.4,0-0.4,0C57.2,241.8,57.4,241.8,57.4,241.6z"/>
						<path id="XMLID_512_" class="st25" d="M113.8,205.4c0-0.1,0.1-0.2,0.1-0.3c-0.1-0.4-0.1-0.8-0.2-1.2
							C113.6,204.3,113.5,204.9,113.8,205.4z"/>
						<path id="XMLID_505_" class="st25" d="M51.8,172.2c0.1,0,0.1,0,0.2,0C51.9,172.1,51.9,172.2,51.8,172.2z"/>
						<path id="XMLID_504_" class="st25" d="M70.8,169.6c-0.2,0.1-0.5,0.1-0.7,0.1C70.2,169.8,70.4,169.7,70.8,169.6z"/>
						<path id="XMLID_503_" class="st25" d="M110.1,191.6C109.9,191.3,110,191.6,110.1,191.6L110.1,191.6z"/>
						<path id="XMLID_502_" class="st25" d="M110.8,189.1c0.1,0.1,0.2,0.1,0.3,0C110.9,189.2,110.9,189.2,110.8,189.1z"/>
						<path id="XMLID_501_" class="st25" d="M116.6,209.4C116.6,209.4,116.6,209.4,116.6,209.4C116.7,209.3,116.6,209.3,116.6,209.4
							z"/>
						<path id="XMLID_500_" class="st25" d="M110,191c0,0.2,0,0.3,0.1,0.5C110.1,191.4,110.1,191.3,110,191z"/>
						<path id="XMLID_499_" class="st25" d="M109.9,191.2c0-0.1-0.1-0.2-0.1-0.3C109.7,190.9,109.7,190.9,109.9,191.2z"/>
						<path id="XMLID_498_" class="st25" d="M110.4,192.1c-0.1-0.2-0.2-0.4-0.2-0.6c0,0.1,0,0.1,0,0.1
							C110.2,191.7,110.2,191.9,110.4,192.1z"/>
						<path id="XMLID_497_" class="st25" d="M34.3,202.5C34.4,202.4,34.4,202.4,34.3,202.5C34.3,201.9,34.3,202.1,34.3,202.5z"/>
						<path id="XMLID_496_" class="st25" d="M104.9,239.2C104.9,239.2,104.9,239.2,104.9,239.2C104.9,239.2,104.9,239.2,104.9,239.2
							L104.9,239.2z"/>
						<path id="XMLID_495_" class="st25" d="M104,240.5c0.1-0.9,0.5-1.1,0.9-1.3l-1.2-0.6c0,0,0.1,0.5,0.2,0.9
							C103.9,240.1,104,240.5,104,240.5z"/>
						<path id="XMLID_488_" class="st25" d="M47.3,240.2l0.6,1.1c-1.4-0.4-2-1.3-1.6-0.1c0.5-0.5,1.3,0.3,2.2,0.9
							c0.9,0.6,1.8,1.3,2.3,0.8l0.4,0.7c-0.2-0.1-0.2-0.1-0.4-0.2c0.8,1.4,1.4-0.2,2.9,0.9c0.5,0.4,0.8,0.8,0.3,0.7l1.4,0.4
							c0.3,0.2,0.1,0.4-0.2,0.2c0,0,0.1,0.1,0.3,0.2c0.2,0.1,0.4,0.2,0.7,0.3c0.5,0.2,1,0.4,1,0.4l0,0c0.4-0.1,1.1-0.1,1.5,0
							c0.4,0.4-0.3,0-0.3,0.2c0,0,1.2,0.2,1.2,0.2c0.2,0.2,0,0.4-0.3,0.4c-0.3,0-0.8-0.1-1.1-0.3c0.2,0.9,0.5,0.9,0.9,0.9
							c0.5,0,1.1,0,2.1,0.8l-1.1-0.2c0.4,1,1.4,1,2.5,1.9c-0.2-0.4-2.1-2-0.7-1.9c0.3,0.2,0.8,0.4,1.5,0.4c-0.1,0.5,0.6,0.5,1.4,0.7
							l-0.2,0.6c1,0.1,1-0.3,1.6-0.4c1,0.3,1.1,0.9,1.3,1.3c1.7,0.4-1-1,1-0.8c0.7,0.2,1.3,0.3,1.9,0.3c0.6,0,1.3,0,2.1-0.2
							c0.9,0.3-0.2,0.4,0.1,0.6l0.9-0.5c0.2,0,0.1,0.2,0.1,0.3c0.7-0.2,0.1-0.6,1.2-0.8c0.2-0.4,0.7,0,1.4,0.2
							c0.7,0.2,1.6,0.4,2.3,0c0.4,0.2-0.1,0.4,0,0.6c1.9-0.6,1.6-0.4,3.1-1.4l1.4,0.2c-1-0.3,0.1-1.1,1.1-1.7
							c-0.4-0.2-0.7-0.3-0.9-0.4c0,0,0.4-0.1,0.8-0.3c0.4-0.2,0.8-0.4,0.8-0.4c0.2,0.1,0.1,0.3-0.1,0.6c0.1-0.1,0.2-0.2,0.3-0.2
							c0.6,0.1,0.4,0.5,0.1,1c-0.2-0.1-0.5-0.2-0.7-0.2c-0.3,0.4-0.7,0.9-0.5,1.3c0.1-0.1,0.3-0.2,0.5-0.3c-0.1,0.1-0.1,0.2-0.1,0.3
							c0.1,0.1,0.2-0.1,0.5-0.3l0.5,0.6l0-0.3l2.3-0.1c0.4-0.3,0.7-0.6,1-0.9c0.3-0.3,0.6-0.7,1-1c0.7-0.7,1.5-1.3,2.6-1.9
							c-0.4,0.8,0.2,0.8,0.4,1.4c-0.9-0.3-1.8,1-3.1,1.3c0.7-0.2,0.6,0.2,0.5,0.3L92,247c0.1,0.5,0.6,0.2,1.3,0.1
							c-0.8-0.7,1.3-1.4,2.1-2.1c0.2,0.3,0.2,0.7-1,1.1c1.5,0.1,1-1.7,2.4-1.9c-0.2,0.2-0.4,0.2-0.4,0.4c0.4-0.6,2-1.3,1.8-0.8
							l-0.2,0.2c0.4-0.2,1-0.5,1.5-0.9c0.5-0.4,1.1-0.8,1.5-1.2c0.9-0.9,1.6-1.7,1.5-2.1c0.1,0.1,0.5,1,0.5,1.2c0,0,0.1-0.3,0.1-0.7
							c0.1-0.4,0.1-1,0.2-1.5c0.2-1.1,0.3-2.2,0.3-2.2c0.3,0.7,2.4,1.2,1.4,2.6c0.4-0.2,1-0.5,1.4-1.4c-0.3,0.2-1.3-0.2-1-0.5
							c1.4-0.3,0.9-0.3,2.3-0.9c-0.4,0.2-0.9-0.9-0.4-1.4c0.1,0.2,0.9,0.7,0.8,1c0,0,0.1-0.5,0.2-1.1c0.1-0.5,0.1-1.1,0.1-1.1
							c-0.1,0.5,0.7,0.7,1.2,0.5c-0.3,0,1-1.3,1.2-1.8l-0.7,0.5c1.4-1.6-0.1-2.6,1-4.2c0.1,0.3,0.9,1.3,1.6,0.4
							c-0.1-0.4-0.4-1.1-0.7-2.1c-0.3-0.9-0.5-2-0.4-2.8l0.4-0.2c0,0,0.1-0.3,0.1-0.7c0.1-0.3,0.1-0.7,0.1-0.7
							c0.3,0.6,0.5,1.5,0.8,2.6c0.2,1.1,0.4,2.2,0.4,3c0.6-0.6,0.4,0,0.9-1.1c0.5-0.2,0.1,0.8,0,1.1l1.4-2.4
							c-0.3-0.1-0.3-0.6-0.2-1.2c0.1-0.6,0.1-1.1-0.2-1.2c0,0,0,0.2-0.1,0.5c0,0.3-0.1,0.7-0.2,1c-0.2,0.8-0.3,1.5-0.3,1.5
							c-0.3-0.1-0.6-0.7-0.6-1.5c0-0.4,0-0.8,0.1-1.3c0-0.4,0.2-0.9,0.3-1.3c0.4-0.4,1,0.8,1.2,0.8c-0.1-0.3,0.2-1.9,0.4-2l0.1,0.9
							c0.3-0.5,0.2-1,0.2-1.5c0-0.5,0-1,0.4-1.6c0.2-0.4,1.2-1.1,0.8-1.3c-0.9,0.5-3.3,0.1-3.7-0.5c0-0.1,0.4-0.5,0.7-1.1
							c0.4-0.5,0.7-1.1,0.9-1.3c0.7-0.6,1.2,1.3,1.8,0.8c-0.2-0.1-0.3-0.5-0.4-0.7c0.2-0.4,0.5,0.3,0.6-0.7c-0.6-0.3,0.4-2-0.5-0.6
							c-0.1-1,0.3-1,0.4-2.2c-0.5,0.3-1.4-1.2-1.6-2.1c0.2,0.1,0.4-0.1,0.5-0.2c0-0.5,0.1-0.9,0.2-1.3c0-0.4,0.1-0.8,0.1-1.2
							c0-0.7,0.1-1.5,0-2.4c0.2-0.2,0.3-1.1,0.6-0.8c-0.2-0.3-0.4-0.5-0.5-1c0.4-1.2,0.3,1.3,0.9,0.3c-0.4,0-0.8-1.4-1.1-2.2
							c-0.6,0.4,0.2,1.9,0.5,2.7c-0.8,0.1-1.9-1.2-2.6-3c-0.5-1.4,0.4-0.7,0.2-1c-0.3-1.4-0.8-1.9-1.2-2.3c-0.4-0.4-0.8-0.8-0.9-2
							c0.2-1,1-0.4,1.3-0.7c0.3,0.5,0.4,1,0.4,1.5c0,0.4,0,0.8,0.1,1.2l0-1.1c0.3,0.3,0.6,1.1,0.6,1.6c0.3-0.9-1.3-4.7-1.8-6.8
							c-0.3-0.3-0.8-0.8-0.9-0.4l0.4,0.6c-0.1,0.7-1.1-0.9-0.9,0c-0.3-0.3-0.7-0.7-1.1-1.1c-0.2-0.2-0.3-0.4-0.5-0.7
							c-0.2-0.2-0.3-0.5-0.4-0.8l0.4-0.5c-0.1,0.1,0.1,0.9,0.5,1.1c-0.5-0.3-0.3-2.1-1.3-2.2l0.1,1c-0.8-0.6-1.8-1.2-2.3-2.2
							c-0.2,0.8,0.2,0.2,0.1,1.2c0.4-1.1,1.4,2.4,1.6,1c-0.3,1.1,0.5,1.4,0.3,2.6c0.2-0.1,0.2-0.5,0.5,0.4c0.1,0,0.2,0.1,0.2,0.1
							c0,0,0,0,0,0.1l0-0.1c0,0,0.1,0,0,0c0-0.2,0-0.4,0.1-0.6c0.6,0.2,1.2,1.6,1.7,1.9c0.2,0.5-0.3-0.1-0.4,0.2
							c0,0,0.6,0.5,0.6,0.6c-0.4,0.2-0.2,1.7-0.9,0.5l0.4,1.1c0,0.7,0.2,1.6,0.6,2.1c0,0.6,0.8,1.2,0.4,0.8l0.7,1.7l-0.1,0
							c0.2,0.9,0.5,1.8,0.8,2.7c0.2,0.9,0.4,1.9,0,3c0.1,0.6,0.3,1.2,0.2,2.2l-0.4,0.2c0.2,0.8-0.5,2.3-0.1,2.6
							c-0.3,0.2-0.4,0.5-0.5,0.9c-0.1,0.4-0.1,0.9-0.2,1.4c-0.1,1-0.1,2-0.3,2.7l0.5,0.1c-0.2,0.9-0.3,1.8-0.4,3l0.4,0
							c0.2,1.1-1.1,2.4-1.6,3.9c-0.1-0.2,0.1-0.5,0.3-0.8c-0.4,0.4-0.6,0.8-0.8,1.3c-0.2,0.5-0.3,0.9-0.4,1.4c-0.2,1-0.4,2-1.2,2.6
							c-0.1,0.4-0.3,0.7-0.6,0.9c0,0,0-0.1,0-0.1c0,0-0.1,0.1-0.1,0.1c-0.2,0.1-0.3,0.2-0.5,0.4c0.2-0.1,0.4-0.2,0.5-0.3
							c-0.2,0.3-0.4,0.8-0.5,1.2l-0.5-0.1c0,0,0,0.1,0,0.1c-0.4,0.3,0,0.5,0.4,0.4c-0.1,0.3-0.1,0.5-0.1,0.7
							c-0.9-0.1-0.6,1.2-1.6,1.1c0.1,0.3-0.3,0.8-0.5,1.4c-0.3,0.5-0.6,1.1-0.4,1.5c-0.1-0.1-0.2,0-0.1-0.2
							c-0.5,0.4-0.9,0.7-1.1,1.2l-0.6-0.2c0,0-0.1,0.4-0.1,0.7c-0.1,0.4-0.2,0.7-0.2,0.7c-0.8,0.2-1.2,0.3-1-0.6
							c-0.8,1.7-0.9,1.2-1.6,2.7l-0.2-0.4c-0.4,0.3-0.8,1.3-1.3,1.2c-1.3,0.2-5.1,3.3-8.2,3.9c0.5,0.4,0.1,0.5-0.3,0.5
							c-0.5,0-1.1,0-1,0.4c-0.3-0.2-0.7-0.2-0.3-0.6c-1.4,0.8-2.3,0.4-3.2,1.4c-0.2-0.2,0.2-0.5,0-0.6c-0.1,0.1-0.4,0.4-0.6,0.2
							c-0.2-0.1,0.2-0.3,0.4-0.5c-1.5,0.4-1.5,1.3-1.4,2.1c-0.4-0.1-0.8-0.1-1,0c-0.3,0.1-0.5,0.3-0.7,0.6c-0.3-0.2-0.9-0.4,0.1-0.7
							c-0.6,0-3.5,0.2-3.5,0.8c-0.2-0.2-0.8,0-0.9,0.1c-1.3,0-1.4,0-2.7,0.1l0.4,0.1c-0.5,0.8-1.1,0.2-2.1,0.2l0-0.1
							c-1.2-0.3-1.4-0.3-1.7-0.2c-0.1,0-0.3,0-0.5,0c-0.2,0-0.6-0.1-1.1-0.4l0.1,0.5c-0.4,1-2-0.9-3.3-0.7l0.4,0.3
							c-0.8,0.2-1.7-1.9-2.3-2.1c-0.1-0.1,0.3-0.1,0.5-0.1c-1.6-1-0.4,0.5-1.8,0.3c-0.1-0.4,0.6-0.7-0.3-1.1
							c-0.2-0.2-0.9-0.2-1.7-0.2c-0.8-0.1-1.7-0.1-2.2-0.8c0.1,0.4,0.3,0.7-0.4,0.6c-1-0.4-2-2-3.2-1.8c-0.1-0.1-0.1-0.2-0.1-0.3
							c-0.8-0.2-2.3-1-3-0.9c0.2-0.9-0.9-1.4-1.9-1.9c-1-0.5-2-1-1.4-1.6l-1.8-1.5l0.2-0.1c-1-1.1-1.6-1.3-2.2-1.4
							c-0.2-0.3,0.1-0.2,0.2-0.3c-1.3-1.8-1.4-2-3.1-3l0.3-0.4c-0.3-0.1-0.6-0.9-1-1.8c-0.2-0.5-0.4-1-0.7-1.5
							c-0.3-0.5-0.6-0.9-1-1.4c0.1,0,0.2,0,0.3,0.1c-0.8-1-1.2-2.4-1.4-3.6c-0.2-1.2-0.6-2.2-1.6-2.4c0,0-0.3-0.3-0.5-0.7
							c-0.2-0.4-0.4-0.7-0.4-0.7c0.4,2.1-0.8-0.1-0.9,0.8c-0.3-0.8,0-2.3,0.3-1.3l0,0.2c1,0.1-0.4-2.6,0.3-2.7
							c-0.8-4.1-0.4-8.1,0-11.8c0,0-0.2,0.1-0.4,0.2c-0.2,0.1-0.4,0.2-0.4,0.2c0,0,0.2-1.3,0.2-1.3c0.2-0.3,0.6-0.4,0.5,0.5
							c0.5-0.4-0.1-1.6-0.3-1.7c0.6-1.8,0.7,0.9,0.8,0.3l0.1-0.8l-0.1,0.2c-0.1-0.3-0.2-0.5-0.3-0.8c-0.1-0.3-0.1-0.6,0.1-1.1
							c0.3-0.7,0.5-0.3,0.6-0.5c0,0,0.1-0.1,0.1-0.4l0.5-1.6l-0.7,0.5c-0.1-0.8,0.4-1.5-0.4-1c0.6-0.4,1.3-1.8,1.8-3.3
							c0.6-1.4,1.2-2.7,1.5-3c0-0.3,0.1-0.6,0.1-0.8c0.1-0.3,0.2-0.5,0.3-0.8c0.3-0.5,0.6-1,0.9-1.5c-0.3,0.2-0.9,0-0.3-0.9
							c0.5,0.5,0.8,0.2,1.3-0.3c0.5-0.5,1-1.1,1.7-1.2c-0.5,0.1-0.1-0.5,0.3-1.2c0.4-0.6,0.8-1.2,0-1c0.7-0.6,0.4,0.3,1.1,0
							c1.1-2,3.6-3.3,5.6-5c-0.1-0.2-0.6-0.1-0.3-0.7l1.7-0.1c0.4-0.4-0.2-1.2,1-1.2c-0.2-0.1-0.5-0.1-0.2-0.4
							c2.5-1.1,4.8-2.5,7.3-3.5c1.3-0.5,2.5-1,3.9-1.2c0.7-0.1,1.3-0.2,2-0.3c0.7-0.1,1.4,0,2.1,0.1c-0.8-0.2-0.3-0.3,0.2-0.4
							c-0.4,0-0.1-0.4-0.2-0.7c0,0,0.6,0.1,1.2,0.2c0.3,0,0.6,0.1,0.8,0.1c0.2,0,0.4,0.1,0.4,0.1c0.4-0.7,2.4-0.2,2.6-0.8l-0.7,0.2
							c0.9-0.8-1.4-1.6-1.4-2.5c-0.3,0.2-0.6,0.3-1,0.2c-0.4,0-0.8-0.1-1.2-0.2c-0.9-0.1-1.9-0.2-2.7,0.5c-0.4-0.1,0.3-0.4,0-0.5
							c-0.4,0.5-0.9,0.7-2,0.8l0.1-0.1c-1.4,0.4-2.5,0.6-3.6,0.9c-0.6,0.1-1.1,0.3-1.8,0.4c-0.6,0.2-1.4,0.3-2.2,0.7l0.4,0.3
							c-0.7,0.3-0.9,0.2-1.2,0.2c-0.4,1,1.9-0.9,1.5,0.2c-0.6-0.2-1.8,0.3-2.9,0.8c-1.1,0.5-2.1,1.2-2.7,0.9c-1,0.6,0.6,0.3-0.4,0.9
							l-0.4-0.1l0,0.5c-0.7,0.3-1.1,0.3-1.3,0.1c0.2-0.1,0.4-0.4,0.5-0.5c-1,0.3-2.1,1.7-2.5,1.8l1-0.5c-0.6,0.5-1.2,1-1.9,1.6
							c-0.6,0.6-1.2,1.1-1.9,1.7c-0.3,0.3-0.6,0.6-0.9,0.9c-0.3,0.3-0.5,0.6-0.8,1c-0.5,0.6-1,1.3-1.4,1.9l0.3,0
							c-0.3,0.5-0.5,0.8-0.7,1.1c-0.2,0.2-0.4,0.4-0.5,0.6c-0.4,0.3-0.8,0.7-1.4,1.7l0-0.1c-0.1,0.5-0.4,1.1-0.7,1.7
							c0.1-0.7-1,0.7-0.9-0.1c-0.9,2.3-0.4,1.2-0.4,3l-0.5,0.2c0.1,0.6,0.2,0.8-0.2,1.9c0.1-1-0.9,0.5-0.7-0.7c-0.5,0.5-0.8,1-1,1.5
							c-0.2,0.5-0.2,0.9-0.3,1.3c-0.1,0.8-0.2,1.4-1,1.8c0.6,1.4,1.3-1.9,1.3-1.2c0.5-0.4,0.4,1.2,0,1.9c-0.3,0.7-1.7,0.9-2.2,3
							c0.1-0.2,0-0.2,0-0.4c-0.2,0.4-0.2,0.7-0.3,1.2c0,0.4-0.1,0.8-0.4,1.3c0.5,0.6-0.2,1.2,0.5,1.5l0.1-1.9c0,1.1,0.8,2.2,0.1,3.9
							c-0.1-0.2-0.3-0.7-0.3-1.1c-0.3,0.5,0,1-0.3,1.5c-0.8-0.2,0.2-2.3-0.3-3.6c-0.4,0.5,0.2,2.3-0.5,1.6c0.5,0.5,0.4,1,0.2,1.6
							c-0.1,0.6-0.2,1.2,0.1,2l-0.5-0.1c0.1,0.2,0.3,0.7,0.2,1.1l-0.6-0.8c0.5,1.2-0.6,2.2-0.2,3.4c-0.1-1.2,0.1-1.3,0.3-1.3
							c0.2,0,0.4,0.2,0.6-0.2c0.7,2.8-1.2,1.7-0.8,4.9c-0.1-0.4,0.2-1.7,0.4-1c-0.1,0.6-0.2,1.4-0.3,1.9c0.4,2.1,0.4-0.4,0.9,0.5
							c-0.5,0.8,0.4,1,0.7,1.9l-0.5,0.1c0,0.6,0.1,0.9,0.2,1.1c0.1,0.2,0.3,0.2,0.4,0.3c0.3,0.1,0.5,0.1,0.6,1.2l-0.9-0.7l0.5,1.1
							l-0.6-0.1c0.4,0.6,0.5,0.9,0.6,1.3c0.1,0.4,0.1,0.8,0.3,1.4c0.2-0.4,0.9-0.1,1.3,0.9c0,0.8-0.6-0.2,0,1.2
							c-0.4-0.2-0.9-0.4-0.7-1.2c-0.2,0-0.4-0.2-0.6-0.2c0,0.9,0.6,1.9,0.8,2.4c-0.1-0.2-0.1-0.5-0.1-0.6c0,0,0.3,0.5,0.7,0.9
							c0.4,0.4,0.8,0.9,0.8,0.9c0,0.4-0.3,0.2-0.5,0c0.2,0.4,0.6,0.6,0.9,1.1c-0.4,0-0.8,0.2-1.4-0.5l1.3,1.7
							c-0.1,0.2,0.1,1.2-0.2,1c0.4,1.1,2.1,2.1,2.8,3.6c0.1,0,0.3,0.1,0.5,0.3c0.4,0.6,0.7,1.3,1.1,1.9c0.2,0.3,0.4,0.6,0.7,0.9
							c0.3,0.3,0.6,0.5,1,0.8l0.1,1.2c1,0.9-0.2-1.6,1.5-0.1c1.2,1,0,0.9,0.2,1.4c0.9,0.3,2.3,0.7,3.1,2.1
							C47.9,240.8,47.7,240.5,47.3,240.2z M61.8,248.4c-0.3,0-1.1,0.1-1.2-0.3C61.2,247.7,61.3,248.1,61.8,248.4z M86.4,248.3
							c-0.2,0.2-0.6,0.2-1,0.2C85.7,248.3,86,248.2,86.4,248.3z M112.1,195.5C112.1,195.5,112.1,195.5,112.1,195.5
							C112.2,196.2,112.2,195.9,112.1,195.5z M111.9,194.1c-0.1-0.1-0.2-0.1-0.2,0c0.1,0,0.3,0.3,0.3,0.7
							C112.1,194.7,112.1,194.5,111.9,194.1z M38.4,198.7l-0.2,0.2C38.2,198.3,38.3,198.5,38.4,198.7z"/>
						<path id="XMLID_487_" class="st25" d="M83.8,249.6c-0.1-0.1-0.1-0.2-0.2-0.2C83.5,249.4,83.6,249.5,83.8,249.6z"/>
						<path id="XMLID_486_" class="st25" d="M40.2,232.6L40.2,232.6c-0.1-0.1-0.1,0-0.1,0L40.2,232.6z"/>
						<path id="XMLID_485_" class="st25" d="M117.9,215.3c-0.1,0.3-0.2,0.4-0.3,0.5C117.6,215.9,117.8,215.8,117.9,215.3z"/>
						<path id="XMLID_484_" class="st25" d="M108,188.2l0.5,0.7c-0.2-0.3-0.2-0.5-0.3-0.7C108.2,188.2,108.1,188.4,108,188.2z"/>
						<path id="XMLID_483_" class="st25" d="M105.8,180.4c-0.1-0.1-0.2-0.2-0.3-0.3l-0.1,0.2C105.7,180.7,106.1,180.9,105.8,180.4z"
							/>
						<path id="XMLID_482_" class="st25" d="M108.9,186.7c0.3-0.3-0.1-0.7-0.5-1.1c0,0,0,0.1,0.1,0.1
							C107.9,185.8,108.5,186.2,108.9,186.7z"/>
						<path id="XMLID_481_" class="st25" d="M108.3,185.4c-0.1-0.1-0.3-0.3-0.4-0.5C107.7,185,108.1,185.2,108.3,185.4z"/>
						<path id="XMLID_480_" class="st25" d="M111,192.7c0-0.3-0.6,0-0.5-0.2C109.9,192.4,111.9,194,111,192.7z"/>
						<polygon id="XMLID_385_" class="st25" points="109.8,185.5 109.5,186 110,186.1 						"/>
						<path id="XMLID_296_" class="st25" d="M111.9,190l-0.3-1c-0.1,0.1-0.2,0-0.3-0.2C111.6,189.5,111.8,190.1,111.9,190z"/>
						<path id="XMLID_295_" class="st25" d="M111.4,188.9c-0.1-0.3-0.3-0.5-0.5-0.7C111,188.4,111.2,188.7,111.4,188.9z"/>
						<polygon id="XMLID_294_" class="st25" points="110.6,186.6 110.7,186.9 111,187.6 						"/>
						<path id="XMLID_293_" class="st25" d="M115.4,200.3l0.3,1.1c0.2,0.1,0.2-0.2,0.1-0.6C115.6,200.5,115.5,200.1,115.4,200.3z"/>
						<path id="XMLID_292_" class="st25" d="M115.9,196.7c0,0.3-0.1,0.4-0.2,0.6l0.6-0.1L115.9,196.7z"/>
						<path id="XMLID_291_" class="st25" d="M116.8,199.9c0.2,0.1,0.7,1.6,0.5,0.1C117.1,199.9,116.8,198.8,116.8,199.9z"/>
						<polygon id="XMLID_290_" class="st25" points="115.9,216.7 115.9,216.5 114.9,216.3 						"/>
						<path id="XMLID_289_" class="st25" d="M112.2,231.7c0.9-1.1-0.4-0.6,0.6-1.5c0-0.4-0.7,0.7-0.7,0.4
							C111.8,231.4,111.4,231.7,112.2,231.7z"/>
						<path id="XMLID_288_" class="st25" d="M112,230.5c0-0.1,0.1-0.3,0.1-0.4C112,230.3,112,230.4,112,230.5z"/>
						<polygon id="XMLID_287_" class="st25" points="73.7,169.9 74.5,170.1 74,169.7 						"/>
						<path id="XMLID_286_" class="st25" d="M75.2,169l0.2,0.6l0.5-0.6C75.7,169.1,75.4,169.2,75.2,169z"/>
						<path id="XMLID_285_" class="st25" d="M63.8,250.4l0.1-0.1c-0.1-0.2-0.3-0.3-0.7-0.4L63.8,250.4z"/>
						<polygon id="XMLID_284_" class="st25" points="52.7,244.9 52.9,245 52.9,244.3 						"/>
						<path id="XMLID_283_" class="st25" d="M44.1,239c0.3,0.3,0.7,0.6,1,0.9C44.4,239.3,44.6,238.4,44.1,239z"/>
					</g>
				</g>
			</g>
		</g>
	</g>
</g>
</svg>
